<svg class="img-fluid" xmlns="http://www.w3.org/2000/svg" width="128" height="128" viewBox="0 0 1280 1280">
	<g id="l3jesOc4M5HGO3F2afVQtg0" fill="rgb(46,42,40)" style="transform: none;">
		<g style="transform: none;">
			<path id="pf2dYpZcf" d="M0 1266 c0 -9 7 -16 15 -16 10 0 15 -11 15 -35 0 -32 2 -35 30 -35 20 0 30 -5 30 -15 0 -11 13 -15 54 -15 53 0 54 0 60 -34 7 -37 21 -46 71 -46 24 0 34 5 38 20 5 20 47 29 47 10 0 -5 15 -10 34 -10 45 0 76 -41 76 -99 0 -44 17 -91 34 -92 6 0 1 -4 -12 -9 -18 -8 -22 -17 -22 -50 0 -29 4 -40 15 -40 11 0 15 -13 15 -54 0 -39 4 -55 15 -60 8 -3 15 -12 15 -21 0 -8 9 -15 20 -15 14 0 20 -7 20 -24 0 -17 7 -26 26 -30 26 -7 26 -7 19 -81 l-7 -75 32 0 c38 0 60 20 60 54 0 14 5 28 10 31 14 9 13 75 -2 75 -7 0 -5 7 6 18 13 12 20 14 23 5 3 -7 12 -13 20 -13 40 0 93 -24 93 -42 0 -12 7 -18 23 -18 13 0 26 -9 32 -22 6 -12 21 -25 35 -28 17 -4 26 -14 28 -30 2 -14 8 -29 13 -34 5 -6 9 -22 9 -37 0 -40 10 -59 31 -59 10 0 19 -7 19 -15 0 -12 15 -15 75 -15 l75 0 0 35 c0 19 -4 35 -10 35 -5 0 -10 9 -10 20 0 15 -7 20 -26 20 -44 0 -84 56 -84 117 l0 42 -42 3 c-39 3 -43 6 -46 31 -2 15 -9 27 -18 27 -8 0 -14 7 -14 15 0 19 -40 35 -86 35 -27 0 -34 4 -34 20 0 10 -4 29 -9 42 -6 13 -13 45 -16 71 l-6 48 -47 -3 c-46 -3 -47 -3 -50 -40 -3 -30 -7 -38 -23 -38 -16 0 -19 7 -19 48 0 42 -3 49 -30 64 -26 15 -30 23 -30 58 0 29 -4 40 -15 40 -17 0 -20 16 -5 25 6 3 10 17 10 30 0 13 5 27 10 30 6 3 10 31 10 61 0 41 -4 54 -15 54 -10 0 -15 10 -15 30 0 28 -3 30 -35 30 -19 0 -35 -3 -35 -8 0 -14 -162 -5 -171 10 -6 10 -49 14 -169 16 -141 3 -160 2 -160 -12z">
			</path>
			<path id="po62aUA9T" d="M1160 1261 c0 -16 -6 -18 -45 -13 l-45 5 0 -37 c0 -20 5 -36 10 -36 6 0 10 -18 10 -40 0 -39 1 -40 35 -40 l35 0 0 65 0 65 36 0 c31 0 35 -2 24 -15 -7 -8 -21 -15 -31 -15 -15 0 -19 -7 -19 -34 0 -28 4 -35 25 -40 14 -4 25 -13 25 -21 0 -10 10 -15 30 -15 l30 0 0 75 c0 67 -2 75 -19 75 -14 0 -18 5 -14 20 5 18 0 20 -41 20 -38 0 -46 -3 -46 -19z">
			</path>
			<path id="pLvuBUPbJ" d="M890 1195 c0 -33 2 -35 35 -35 33 0 35 2 35 35 0 33 -2 35 -35 35 -33 0 -35 -2 -35 -35z">
			</path>
			<path id="pCpzSRnuG" d="M813 1131 c-4 -14 -15 -21 -42 -23 l-36 -3 -3 -60 c-5 -92 1 -105 48 -105 46 0 49 4 57 70 6 52 17 65 26 30 4 -15 14 -20 41 -20 35 0 36 1 36 40 0 36 -2 40 -25 40 -20 0 -25 5 -25 25 0 22 -4 25 -36 25 -27 0 -37 -5 -41 -19z">
			</path>
			<path id="p1D7ejQWcH" d="M330 740 c0 -34 4 -42 26 -50 14 -6 39 -10 55 -10 27 0 29 2 29 40 0 33 -3 40 -20 40 -11 0 -20 5 -20 10 0 6 -16 10 -35 10 -34 0 -35 -1 -35 -40z">
			</path>
			<path id="p197H8CznE" d="M700 395 c0 -19 5 -35 10 -35 6 0 10 -11 10 -25 0 -16 6 -25 15 -25 8 0 15 -7 15 -15 0 -8 9 -15 20 -15 13 0 20 -7 20 -20 0 -16 7 -20 35 -20 28 0 35 4 35 19 0 11 5 23 10 26 6 3 10 22 10 41 0 31 -2 34 -30 34 -21 0 -30 5 -30 16 0 28 -40 54 -82 54 -37 0 -38 -1 -38 -35z">
			</path>
			<path id="p1kRtaCFp" d="M70 335 c0 -33 2 -35 35 -35 33 0 35 2 35 35 0 33 -2 35 -35 35 -33 0 -35 -2 -35 -35z">
			</path>
			<path id="p1BUENHiUs" d="M890 305 l0 -55 35 0 35 0 0 55 0 55 -35 0 -35 0 0 -55z">
			</path>
			<path id="p5uVhrNXy" d="M1250 305 c0 -42 3 -55 15 -55 12 0 15 13 15 55 0 42 -3 55 -15 55 -12 0 -15 -13 -15 -55z">
			</path>
			<path id="p1Hs4GkFUX" d="M1046 284 c-10 -25 -7 -74 4 -74 6 0 7 -38 3 -105 l-6 -105 116 1 117 1 0 79 c0 72 -2 79 -20 79 -11 0 -20 5 -20 10 0 6 -11 10 -25 10 -18 0 -25 5 -25 20 0 15 -7 20 -25 20 -19 0 -25 5 -25 21 0 39 -19 59 -54 59 -22 0 -36 -6 -40 -16z">
			</path>
		</g>
	</g>
	<g id="l3pui1XA6AGKnLHhmNWYR1s" fill="rgb(69,68,58)" style="transform: none;">
		<g style="transform: none;">
			<path id="pZbOfIgUD" d="M20 1228 c0 -29 4 -58 8 -65 4 -7 44 -15 90 -19 l82 -7 0 -29 c0 -30 19 -58 39 -58 6 0 11 -9 11 -20 0 -16 7 -20 35 -20 32 0 35 2 35 30 0 26 3 30 29 30 16 0 31 4 33 10 2 5 19 7 41 3 36 -5 37 -7 37 -47 0 -22 4 -58 9 -79 5 -21 5 -39 0 -43 -16 -10 -11 -111 6 -118 11 -4 15 -20 15 -56 0 -38 4 -50 15 -50 8 0 15 -9 15 -20 0 -27 27 -92 43 -102 8 -5 4 -8 -10 -8 -20 0 -23 -5 -23 -36 0 -36 0 -36 40 -32 28 2 40 0 40 -9 0 -7 -7 -13 -15 -13 -10 0 -15 -10 -15 -34 0 -36 15 -46 71 -46 20 0 28 -6 31 -25 4 -21 1 -25 -18 -25 -21 0 -24 -5 -24 -35 l0 -35 70 0 c56 0 70 -3 70 -15 0 -10 10 -15 34 -15 33 0 35 -2 42 -45 6 -43 8 -45 39 -45 31 0 34 3 40 40 6 36 25 67 25 41 0 -6 7 -11 15 -11 8 0 15 -7 15 -15 0 -9 -9 -15 -25 -15 -22 0 -25 -4 -25 -35 0 -31 3 -36 30 -41 32 -7 35 -16 31 -81 -3 -32 -1 -33 38 -33 31 0 41 4 46 20 3 11 11 20 16 20 6 0 8 -8 4 -19 -5 -17 2 -18 79 -19 75 -1 84 1 79 15 -4 11 -3 14 5 9 17 -10 15 2 -2 20 -11 11 -16 11 -19 1 -3 -6 -6 -4 -6 7 -1 14 4 17 19 13 20 -5 20 -1 19 164 -1 135 -5 169 -15 169 -8 0 -14 7 -14 15 0 8 -3 15 -8 15 -4 0 -6 19 -3 43 2 23 6 36 8 30 3 -7 11 -13 19 -13 11 0 14 26 14 140 l0 140 -35 0 c-19 0 -35 -4 -35 -10 0 -5 -13 -10 -30 -10 -28 0 -30 -3 -30 -36 0 -28 -5 -37 -21 -41 -16 -5 -19 -12 -17 -42 2 -29 8 -37 26 -39 16 -3 22 -10 22 -30 0 -15 2 -36 4 -47 2 -11 1 -14 -1 -7 -3 6 -15 12 -27 12 -19 0 -25 7 -30 40 -6 41 -10 43 -96 52 -15 2 -30 14 -40 33 -24 47 -49 65 -92 65 -27 0 -38 4 -38 15 0 10 11 15 35 15 19 0 35 4 35 9 0 4 11 6 25 3 14 -2 25 -11 25 -18 0 -10 13 -14 40 -14 l40 0 0 55 c0 40 -4 57 -15 61 -8 4 -15 15 -15 26 0 19 -5 19 -87 14 -87 -5 -87 -5 -28 6 71 13 105 44 105 97 0 29 3 33 23 28 12 -4 41 -9 65 -13 23 -4 42 -10 42 -15 0 -5 14 -9 30 -9 32 0 42 -23 15 -34 -9 -3 -15 -18 -15 -35 0 -51 9 -61 52 -61 65 0 68 8 67 182 -1 138 -2 150 -14 123 -8 -17 -14 -23 -15 -13 0 9 -6 18 -12 21 -18 5 8 37 31 37 14 0 14 2 1 10 -10 6 -11 10 -2 10 7 0 12 14 12 34 l0 34 -290 1 -290 0 0 -49 c0 -38 4 -50 15 -50 13 0 14 -12 9 -80 l-7 -80 27 0 c16 0 25 -4 21 -10 -3 -5 3 -10 14 -10 22 0 28 -14 10 -25 -6 -4 -16 1 -24 11 -22 31 -29 8 -19 -56 8 -48 7 -60 -3 -60 -7 0 -13 -7 -13 -15 0 -8 6 -15 14 -15 7 0 16 -12 19 -26 4 -23 2 -25 -19 -21 -19 3 -24 0 -24 -16 0 -15 5 -18 23 -15 19 4 25 -1 35 -32 7 -23 8 -48 2 -66 l-8 -29 -1 33 c-1 17 -6 32 -12 32 -5 0 -8 -4 -4 -9 3 -5 1 -12 -4 -15 -5 -4 -13 -1 -16 5 -5 7 -19 -2 -39 -23 -38 -39 -66 -45 -66 -14 -1 21 -1 21 -17 1 -9 -11 -14 -14 -11 -5 3 8 -3 31 -13 50 -18 32 -19 33 -20 10 l-1 -25 -10 28 c-5 15 -14 25 -19 21 -5 -3 -9 0 -9 6 0 6 6 13 14 16 17 6 16 60 -1 56 -7 -1 -13 5 -13 13 0 8 -7 15 -15 15 -22 0 -18 21 5 27 15 4 20 14 20 39 0 19 -4 34 -9 34 -13 0 -25 39 -22 72 5 60 -55 137 -99 125 -11 -3 -20 0 -20 6 0 8 -17 11 -51 8 -40 -2 -52 -7 -56 -22 -6 -20 -23 -26 -23 -8 0 5 -4 8 -9 5 -5 -3 -11 4 -15 17 -3 12 -1 24 4 25 6 2 10 10 10 18 0 10 -9 13 -34 10 -30 -4 -35 -2 -40 20 -4 13 -13 24 -20 24 -8 0 -22 8 -32 17 -9 10 -22 18 -29 19 -7 1 -27 5 -44 9 l-31 7 0 -54z m780 -167 c17 -33 13 -42 -15 -29 -24 11 -32 28 -18 41 11 12 22 8 33 -12z m34 -310 c-2 -2 -10 2 -19 9 -17 14 -20 40 -5 40 6 0 11 15 11 33 1 22 4 15 9 -23 5 -30 7 -57 4 -59z m29 -111 c-3 -12 -6 -19 -7 -18 -1 2 -8 11 -15 21 -12 15 -11 17 7 17 15 0 19 -5 15 -20z m44 -5 c3 -9 3 -19 -1 -22 -8 -9 -37 18 -30 28 8 14 24 11 31 -6z m-147 -51 c0 -7 9 -16 20 -19 11 -3 20 -15 20 -26 0 -12 7 -19 20 -19 11 0 20 -7 20 -15 0 -8 -6 -15 -14 -15 -7 0 -19 7 -26 15 -7 8 -29 15 -49 15 l-36 0 0 49 c0 46 1 48 23 38 12 -6 22 -16 22 -23z m277 -131 c20 -30 24 -83 7 -83 -7 0 -15 7 -18 16 -9 23 -7 36 4 29 19 -12 10 25 -12 45 -12 11 -17 20 -10 20 6 0 20 -12 29 -27z m-283 -59 c17 -7 22 -54 6 -54 -5 0 -10 11 -10 24 0 13 -6 27 -12 29 -7 3 -10 6 -6 6 3 1 13 -2 22 -5z m446 -124 c0 -13 -11 -13 -30 0 -12 8 -11 10 8 10 12 0 22 -4 22 -10z m-54 -158 c-11 -10 -15 4 -8 28 l7 25 3 -23 c2 -13 1 -26 -2 -30z m54 28 c5 7 9 -2 12 -24 4 -34 3 -35 -14 -16 -10 10 -18 27 -17 37 0 12 2 14 6 4 4 -10 7 -10 13 -1z m60 -36 c0 -14 -4 -23 -10 -19 -5 3 -10 15 -10 26 0 10 5 19 10 19 6 0 10 -12 10 -26z">
			</path>
			<path id="pKr5rAokK" d="M230 1265 c0 -9 6 -12 15 -9 8 4 15 1 15 -5 0 -6 9 -11 20 -11 11 0 20 -4 20 -10 0 -5 11 -10 25 -10 21 0 25 -5 26 -32 1 -30 2 -31 8 -8 7 28 43 39 67 20 11 -10 14 -9 14 6 0 14 3 15 12 6 10 -10 10 -17 0 -32 -14 -23 -15 -30 -4 -30 4 0 15 12 24 27 l16 28 8 -30 8 -30 6 30 c3 17 10 29 15 28 10 -3 11 -6 14 -50 2 -27 3 -27 11 -5 12 29 16 28 15 -4 -1 -14 -8 -30 -16 -35 -11 -7 -9 -9 7 -9 25 0 34 23 34 93 0 43 -3 49 -27 58 -16 6 -36 15 -45 20 -10 5 -79 9 -153 9 -112 0 -135 -2 -135 -15z">
			</path>
			<path id="ps0CyIZuB" d="M533 1010 c0 -25 2 -35 4 -22 2 12 2 32 0 45 -2 12 -4 2 -4 -23z">
			</path>
			<path id="pYBqfXCcY" d="M563 925 c0 -22 2 -30 4 -17 2 12 2 30 0 40 -3 9 -5 -1 -4 -23z">
			</path>
			<path id="ppMRVWi1i" d="M340 735 c0 -28 4 -35 20 -35 11 0 20 -7 20 -15 0 -10 -10 -15 -27 -15 -58 0 -73 -10 -73 -46 l0 -34 90 0 90 0 0 74 c0 90 -11 106 -76 106 -44 0 -44 0 -44 -35z m51 -5 c10 0 19 -4 19 -10 0 -13 -43 4 -46 19 -1 6 0 7 3 1 2 -5 13 -10 24 -10z">
			</path>
			<path id="p1GwptrwVk" d="M620 690 c0 -11 4 -20 9 -20 17 0 19 15 5 28 -12 11 -14 9 -14 -8z">
			</path>
			<path id="pXMmxVT81" d="M130 485 c0 -33 2 -35 35 -35 33 0 35 2 35 35 0 33 -2 35 -35 35 -33 0 -35 -2 -35 -35z">
			</path>
			<path id="p14zQQzcQ2" d="M500 405 c0 -33 2 -35 35 -35 33 0 35 2 35 35 0 33 -2 35 -35 35 -33 0 -35 -2 -35 -35z">
			</path>
			<path id="pI4d2GZ6M" d="M110 418 c0 -7 -16 -24 -35 -38 -29 -21 -34 -31 -35 -62 0 -36 1 -38 34 -38 18 0 39 7 46 15 7 8 19 15 26 15 8 0 14 9 14 20 0 11 5 20 10 20 6 0 10 18 10 40 0 39 -1 40 -35 40 -21 0 -35 -5 -35 -12z">
			</path>
		</g>
	</g>
	<g id="l2hR7XDx50PRUtfKcoNcGgR" fill="rgb(89,85,68)" style="transform: none;">
		<g style="transform: none;">
			<path id="p19GBdMgn4" d="M11 1271 c-10 -6 -12 -19 -7 -46 14 -75 22 -82 93 -90 50 -5 68 -4 74 6 12 19 20 6 26 -40 4 -31 10 -41 24 -41 11 0 19 -7 19 -15 0 -10 11 -15 35 -15 28 0 35 4 35 20 0 14 9 21 35 26 19 3 35 10 35 15 0 5 7 9 15 9 8 0 15 4 15 8 0 16 -45 31 -85 29 -36 -2 -40 -5 -43 -29 -6 -55 -51 -22 -48 35 1 37 -20 60 -35 36 -4 -7 -12 -1 -20 17 -8 16 -23 30 -33 32 -11 2 -16 0 -12 -6 3 -6 2 -13 -4 -17 -5 -3 -10 2 -10 12 0 30 -16 46 -38 39 -14 -5 -18 -13 -15 -26 3 -11 10 -17 16 -13 6 3 7 1 3 -5 -17 -27 -36 -12 -36 28 0 40 -11 49 -39 31z m329 -161 c12 -8 11 -10 -7 -10 -13 0 -23 5 -23 10 0 13 11 13 30 0z">
			</path>
			<path id="pZlwM7888" d="M240 1270 c0 -10 6 -12 54 -14 18 -1 31 -8 35 -19 6 -17 9 -16 34 7 l27 25 -6 -27 -5 -27 18 21 c15 17 22 19 37 10 14 -8 20 -8 23 2 3 6 9 12 15 12 6 0 7 -7 4 -16 -3 -9 -2 -12 5 -9 6 4 13 -3 16 -14 5 -20 6 -20 19 -4 13 17 15 17 33 -4 24 -28 31 -29 31 -3 0 11 7 20 15 20 8 0 15 -7 15 -16 0 -21 24 -44 47 -44 31 0 42 -14 45 -60 2 -38 7 -46 26 -48 12 -2 22 2 22 8 0 18 23 36 45 35 11 -1 31 5 44 13 20 12 25 12 32 1 13 -21 11 -27 -11 -34 -11 -3 -20 -15 -20 -25 0 -10 -8 -21 -17 -23 -16 -4 -16 -5 -1 -6 10 -1 19 -13 23 -32 9 -41 0 -47 -16 -10 -14 31 -34 45 -50 35 -15 -9 -10 -24 9 -24 24 0 24 -36 0 -37 -10 -1 -18 5 -18 13 0 8 -6 14 -14 14 -12 0 -14 -16 -13 -75 1 -54 5 -75 14 -75 9 0 13 -16 13 -49 0 -28 5 -53 11 -57 6 -3 9 -22 7 -40 -2 -19 1 -36 7 -38 5 -2 4 -5 -3 -5 -7 -1 -10 -5 -7 -11 3 -5 3 -10 -2 -10 -14 0 -30 14 -41 37 l-12 21 -30 -28 c-29 -27 -37 -66 -17 -81 4 -3 1 -18 -7 -33 -10 -21 -11 -32 -2 -51 6 -13 15 -21 21 -17 5 3 4 -2 -4 -11 -13 -16 -15 -15 -28 10 -7 14 -13 34 -12 42 1 9 0 30 -1 46 l-2 30 -12 -33 c-13 -36 -27 -34 -20 3 3 17 -1 25 -15 30 -23 7 -47 60 -50 113 -1 6 -8 12 -16 12 -12 0 -13 5 -7 18 5 9 7 23 5 30 -3 7 3 12 14 12 15 0 15 2 3 9 -8 6 -18 7 -22 5 -4 -3 -5 2 -2 10 3 9 -2 17 -15 21 -23 7 -27 20 -10 31 7 4 8 9 1 13 -7 4 -5 13 4 26 15 20 15 20 12 0 -2 -11 2 -22 7 -25 13 -7 19 40 7 52 -6 6 -24 7 -40 3 -29 -6 -31 -10 -38 -63 -5 -39 -3 -57 5 -60 35 -12 51 -63 55 -183 1 -32 7 -54 16 -60 13 -8 13 -11 -2 -23 -14 -10 -18 -28 -18 -84 0 -68 1 -72 25 -78 18 -4 25 -13 25 -29 0 -18 7 -25 28 -28 25 -4 25 -4 -5 -6 -31 -1 -33 -3 -33 -36 0 -33 2 -35 34 -35 19 0 36 4 38 10 2 5 33 12 71 16 58 6 67 5 67 -10 0 -12 10 -16 45 -16 25 0 45 -4 45 -10 0 -5 -11 -10 -25 -10 -22 0 -25 -4 -25 -35 0 -34 1 -35 40 -35 22 0 40 5 40 10 0 6 11 10 24 10 25 0 36 -28 36 -96 0 -31 3 -34 30 -34 23 0 30 -4 30 -20 0 -24 43 -28 66 -6 16 17 19 36 4 36 -14 0 -12 20 4 52 9 16 10 28 4 30 -13 5 -21 120 -10 137 8 11 15 10 40 -7 16 -12 41 -26 56 -32 29 -11 35 -30 9 -30 -16 -1 -16 -2 1 -15 14 -11 16 -15 5 -15 -12 0 -12 -2 1 -10 12 -7 17 -2 26 23 11 31 11 30 16 -33 3 -36 1 -76 -4 -89 -10 -28 -2 -61 15 -61 9 0 12 27 10 95 -1 55 2 95 7 95 6 0 10 -4 10 -10 0 -5 5 -10 11 -10 14 0 8 51 -8 68 -19 19 -16 42 5 43 10 0 12 3 5 6 -7 2 -13 9 -13 14 0 6 5 7 11 3 8 -4 7 0 -1 15 -6 12 -15 19 -21 16 -5 -4 -6 -12 -3 -18 5 -9 4 -9 -5 -1 -8 7 -9 19 -3 34 6 15 11 19 16 12 17 -28 23 -7 24 76 0 52 -4 93 -11 101 -7 8 -7 12 -1 9 6 -4 10 6 11 27 1 27 -2 32 -15 28 -9 -4 -13 -2 -9 4 10 16 -17 23 -62 17 -23 -3 -42 -1 -46 5 -7 12 12 15 59 12 l30 -3 -27 35 c-15 20 -27 39 -27 44 0 4 5 1 10 -7 9 -13 11 -13 21 0 9 12 10 10 6 -8 -7 -32 19 -40 44 -13 22 23 18 41 -9 42 -12 0 -11 3 6 9 16 7 22 18 22 40 0 19 -5 30 -14 30 -7 0 -16 9 -19 20 -4 15 0 20 15 20 16 0 19 5 14 20 -3 11 -9 29 -12 40 -4 12 -2 20 5 20 7 0 11 20 11 50 l0 50 -59 -6 c-58 -6 -59 -6 -69 22 -6 18 -11 22 -11 12 -1 -10 -7 -18 -13 -19 -7 0 -4 -4 7 -9 19 -8 19 -9 -2 -9 -32 -1 -37 15 -14 48 26 37 27 61 2 61 -28 0 -37 20 -9 21 l23 0 -23 9 c-12 5 -29 7 -37 4 -8 -4 -15 -1 -15 4 0 6 12 13 28 15 15 2 -1 3 -35 3 -36 -1 -65 -6 -67 -12 -2 -6 -14 -14 -25 -17 -12 -3 -19 -1 -15 5 3 5 -3 12 -15 15 -23 6 -29 23 -8 23 6 1 1 10 -12 20 -22 19 -22 20 -3 20 11 0 25 -6 31 -14 10 -12 16 -12 39 0 14 7 29 10 32 5 7 -10 40 -10 40 0 0 5 7 6 16 2 10 -4 17 1 21 15 3 12 12 23 22 25 9 3 -31 5 -89 6 -99 1 -106 0 -120 -21 -8 -13 -13 -29 -12 -35 2 -7 -3 -13 -10 -13 -8 0 -6 -5 5 -11 21 -12 22 -29 2 -29 -8 0 -15 -6 -15 -12 0 -9 -3 -10 -8 -2 -4 6 -20 16 -37 21 -21 7 -29 16 -28 29 1 11 -3 7 -11 -10 -13 -28 -14 -29 -20 -8 -4 12 -14 22 -22 22 -13 0 -13 2 -2 13 7 8 20 16 28 20 9 3 10 6 3 6 -7 1 -13 7 -13 14 0 7 -15 13 -35 14 -30 1 -35 -2 -36 -20 0 -12 -3 -16 -6 -9 -2 6 -11 12 -19 12 -8 0 -14 5 -14 10 0 6 -75 10 -205 10 -130 0 -205 -4 -205 -10z m808 -132 c-6 -26 -22 -36 -36 -22 -7 8 -10 18 -7 24 9 14 46 12 43 -2z m-121 -38 c-1 -11 -5 -20 -9 -20 -4 0 -8 -4 -8 -10 0 -5 7 -10 15 -10 20 0 19 -16 -1 -24 -8 -3 -13 -2 -9 3 3 5 -8 12 -25 16 -16 4 -30 11 -30 16 0 6 5 7 10 4 6 -3 13 2 17 12 13 34 43 44 40 13z m176 -17 c-9 -24 -43 -56 -43 -40 0 32 14 57 31 57 13 0 17 -5 12 -17z m-143 -68 c-6 -16 -6 -26 1 -31 20 -12 -6 -21 -43 -17 -29 4 -38 10 -38 25 0 14 5 18 19 13 11 -3 28 3 42 14 30 26 30 26 19 -4z m167 -125 c19 0 38 -34 49 -88 4 -20 3 -32 -4 -32 -6 0 -14 -20 -18 -45 -3 -25 -11 -45 -16 -45 -6 0 -8 -18 -6 -40 3 -38 2 -40 -28 -46 -35 -6 -94 3 -94 15 0 4 -11 14 -25 21 -32 17 -35 60 -5 60 11 0 23 6 26 14 3 8 18 16 35 20 20 4 29 11 29 25 0 19 25 31 68 31 19 0 22 5 22 36 l0 37 -45 -5 c-25 -3 -45 -2 -45 3 0 5 -10 9 -22 10 l-23 0 23 9 c12 5 22 18 22 29 0 26 23 33 32 9 4 -10 15 -18 25 -18z m-202 -70 c18 -11 43 -19 56 -18 20 3 25 -2 27 -24 2 -16 -1 -28 -7 -28 -6 0 -11 10 -11 21 0 16 -5 20 -20 16 -11 -3 -20 -2 -20 2 0 4 -16 7 -36 8 -39 1 -60 15 -50 32 10 16 24 14 61 -9z m-30 -146 c13 -5 14 -8 3 -15 -12 -8 -6 -11 19 -8 6 0 33 -55 32 -67 0 -4 12 -15 27 -25 30 -20 52 -15 33 7 -9 11 -7 14 10 14 16 0 21 -6 21 -26 0 -21 4 -25 20 -21 15 4 20 0 20 -13 0 -11 -5 -22 -10 -25 -6 -4 -3 -16 10 -32 15 -19 17 -30 9 -44 -5 -10 -14 -19 -19 -19 -6 0 -10 -4 -10 -8 0 -16 33 -8 37 9 5 16 6 16 24 -2 10 -10 16 -25 13 -34 -4 -10 0 -15 15 -15 12 0 21 -5 21 -11 0 -6 -9 -8 -22 -3 -28 9 -48 9 -70 -1 -14 -5 -18 -2 -18 14 0 16 -6 20 -22 18 -24 -2 -24 0 -16 68 2 14 -4 21 -19 23 -19 3 -21 6 -10 23 15 24 24 24 30 2 3 -11 5 -6 6 11 1 21 -3 27 -13 23 -8 -3 -29 -2 -45 3 -28 8 -30 7 -21 -10 5 -10 15 -20 22 -22 8 -3 6 -7 -4 -11 -11 -4 -19 0 -22 11 -8 24 -46 46 -58 34 -7 -7 -3 -12 11 -17 23 -7 29 -25 7 -25 -19 0 -39 27 -33 45 4 8 2 17 -4 20 -5 4 -7 10 -4 15 3 4 -8 14 -23 21 -22 10 -28 19 -29 46 -1 26 3 33 17 33 11 0 22 5 25 10 7 12 17 12 40 4z m322 -130 c-9 -9 -28 6 -21 18 4 6 10 6 17 -1 6 -6 8 -13 4 -17z m-446 -71 c12 -15 12 -16 -3 -10 -10 3 -18 2 -18 -3 0 -6 5 -10 10 -10 6 0 10 -9 10 -20 0 -11 4 -20 9 -20 4 0 7 -18 6 -41 -2 -30 1 -39 11 -35 8 3 14 2 14 -3 0 -4 14 -6 30 -3 18 2 30 0 30 -7 0 -6 -7 -8 -15 -5 -8 4 -15 2 -15 -3 0 -4 -39 -9 -87 -9 -72 -1 -81 1 -48 8 34 7 40 12 40 31 -2 29 -14 49 -26 42 -5 -4 -9 -1 -9 4 0 6 7 11 15 11 8 0 15 5 15 11 0 5 5 7 10 4 6 -3 10 -2 10 4 0 5 -4 13 -10 16 -12 8 -13 55 -1 55 5 0 15 -8 22 -17z m228 -84 c3 -11 1 -12 -11 -2 -8 7 -19 9 -23 5 -5 -4 -5 -1 -1 6 9 16 28 11 35 -9z m205 15 c8 -3 12 -12 9 -21 -3 -8 0 -19 8 -25 10 -7 11 -11 2 -14 -7 -3 -9 -13 -6 -22 6 -14 4 -15 -9 -4 -13 10 -17 10 -22 0 -3 -7 -4 -3 -2 9 2 12 -1 24 -8 26 -8 3 -8 8 1 19 10 11 10 17 1 26 -13 13 -1 16 26 6z m-269 -24 c3 -5 -3 -10 -15 -10 -12 0 -18 5 -15 10 3 6 10 10 15 10 5 0 12 -4 15 -10z m-267 -31 c-21 -14 -26 -10 -21 11 4 16 8 18 20 9 11 -10 11 -14 1 -20z m281 -29 c38 -11 51 -25 50 -55 0 -18 -1 -18 -10 3 -7 18 -14 22 -31 17 -13 -4 -31 -14 -40 -23 -14 -12 -18 -12 -18 -2 0 7 -3 10 -6 7 -4 -4 -2 -13 4 -20 7 -8 8 -24 3 -43 -7 -26 -9 -24 -14 26 -11 109 -10 111 62 90z m101 -40 c0 -4 -7 -13 -15 -20 -13 -11 -15 -8 -15 13 0 19 4 25 15 21 8 -4 15 -10 15 -14z m-185 0 c-3 -5 -18 -9 -33 -9 l-27 1 30 8 c17 4 31 8 33 9 2 0 0 -3 -3 -9z">
			</path>
			<path id="pFopg4Uaf" d="M1222 1240 c-48 -11 -46 -15 10 -17 29 0 45 2 38 7 -10 6 -9 9 1 13 21 8 -9 7 -49 -3z">
			</path>
			<path id="pjntGL215" d="M1179 1135 c-3 -5 -6 -30 -7 -55 l-1 -45 10 34 c10 33 9 85 -2 66z">
			</path>
			<path id="pkVFlM6QA" d="M430 1097 c0 -12 7 -31 15 -41 9 -11 15 -41 15 -68 0 -47 1 -48 31 -48 26 0 29 2 20 14 -7 8 -12 34 -13 58 0 52 -20 94 -48 101 -16 4 -20 0 -20 -16z">
			</path>
			<path id="p1EpXncIgu" d="M342 735 c4 -34 2 -45 -8 -45 -8 0 -14 -4 -14 -10 0 -5 -9 -10 -20 -10 -16 0 -20 -7 -20 -35 0 -33 2 -35 39 -41 34 -5 40 -11 43 -33 3 -22 8 -26 38 -29 55 -4 61 5 67 110 l6 95 -32 6 c-18 4 -31 13 -31 22 0 11 -10 15 -36 15 l-37 0 5 -45z m82 -21 c3 -8 4 -14 2 -14 -11 0 -66 33 -66 40 0 14 58 -10 64 -26z">
			</path>
			<path id="pGYI2aUwK" d="M200 645 c0 -33 2 -35 35 -35 33 0 35 2 35 35 0 33 -2 35 -35 35 -33 0 -35 -2 -35 -35z">
			</path>
			<path id="poMVzlZv1" d="M610 629 c-11 -19 -7 -39 5 -27 7 7 15 48 10 48 -2 0 -9 -9 -15 -21z">
			</path>
			<path id="pX8Rl5NXS" d="M120 485 c0 -35 0 -35 45 -35 45 0 45 0 45 35 0 35 0 35 -45 35 -45 0 -45 0 -45 -35z">
			</path>
			<path id="pvJ6G7IU3" d="M75 386 c-34 -34 -45 -52 -45 -75 0 -21 -5 -31 -15 -31 -10 0 -15 -11 -15 -35 0 -28 4 -35 20 -35 16 0 20 7 20 35 0 32 2 35 30 35 25 0 30 -4 30 -25 0 -22 4 -25 35 -25 33 0 35 2 35 35 0 19 -4 35 -10 35 -17 0 -11 25 10 38 15 9 20 23 20 52 0 39 -1 40 -35 40 -27 0 -44 -9 -80 -44z m55 -28 c0 -7 -14 -21 -30 -30 -37 -21 -38 -14 -2 17 32 29 32 29 32 13z">
			</path>
			<path id="pHUnXn2zd" d="M1160 121 c0 -12 5 -21 10 -21 6 0 10 6 10 14 0 8 -4 18 -10 21 -5 3 -10 -3 -10 -14z">
			</path>
			<path id="pV302b90D" d="M1260 93 c0 -13 5 -23 10 -23 13 0 13 11 0 30 -8 12 -10 11 -10 -7z">
			</path>
			<path id="p104S2Cb5x" d="M1160 34 c0 -14 -3 -14 -15 -4 -9 7 -15 8 -15 2 0 -10 23 -22 41 -22 5 0 9 9 9 20 0 11 -4 20 -10 20 -5 0 -10 -7 -10 -16z">
			</path>
		</g>
	</g>
	<g id="l6fkf1eVegWFs748RkDDKRZ" fill="rgb(81,93,115)" style="transform: none;">
		<g style="transform: none;">
			<path id="pVyIOpdgR" d="M226 1267 c6 -17 42 -17 48 0 4 9 -4 13 -24 13 -20 0 -28 -4 -24 -13z">
			</path>
			<path id="pc9qULWP" d="M546 1218 c-9 -34 -5 -57 4 -28 7 21 8 22 10 5 6 -64 5 -78 -7 -82 -8 -3 -11 -14 -7 -28 3 -13 1 -26 -5 -29 -18 -11 -14 -86 4 -86 11 0 15 -11 15 -40 0 -35 4 -43 30 -58 33 -19 36 -35 18 -94 -9 -29 -9 -41 0 -50 7 -7 12 -23 12 -36 0 -33 23 -22 31 15 9 46 17 53 58 53 48 0 58 10 30 31 -26 19 -20 49 9 49 11 0 25 7 32 15 7 8 19 15 26 15 10 0 8 6 -6 20 -22 22 -26 40 -10 40 6 0 10 -4 10 -10 0 -5 5 -10 10 -10 20 0 9 29 -12 32 -14 2 -24 13 -29 31 -7 25 -5 27 22 27 39 0 37 13 -6 33 -19 9 -35 23 -35 32 0 8 -7 15 -15 15 -12 0 -15 -14 -15 -64 0 -36 5 -68 10 -71 6 -3 10 -18 10 -33 0 -22 -6 -29 -35 -38 -31 -10 -35 -9 -35 7 0 26 -33 88 -46 89 -23 0 -35 110 -13 118 5 2 9 37 9 78 l0 74 -34 0 c-26 0 -35 -5 -40 -22z">
			</path>
			<path id="pGomTmUNg" d="M771 798 c0 -13 4 -32 9 -43 7 -16 9 -13 9 17 1 20 -3 40 -9 43 -6 3 -10 -4 -9 -17z">
			</path>
			<path id="pGXf8XaNW" d="M1110 755 c0 -33 2 -35 35 -35 33 0 35 2 35 35 0 33 -2 35 -35 35 -33 0 -35 -2 -35 -35z">
			</path>
			<path id="pnj6wOqnJ" d="M928 669 c-10 -10 -14 -19 -9 -19 5 0 11 -8 15 -17 12 -36 50 -82 68 -83 4 0 5 7 2 15 -4 10 0 15 15 15 16 0 21 -6 21 -26 0 -21 4 -25 20 -21 10 3 21 0 24 -7 3 -8 7 -7 14 3 6 9 19 11 40 7 28 -7 30 -5 35 31 3 30 0 41 -17 55 l-21 16 28 7 c46 12 33 35 -19 35 -37 0 -47 -4 -51 -19 -10 -38 -83 -27 -83 13 0 23 -60 20 -82 -5z">
			</path>
			<path id="p2NSON2GN" d="M842 210 c4 -26 2 -29 -14 -24 -16 5 -18 -1 -18 -68 0 -110 4 -118 56 -118 37 0 44 3 44 20 0 12 7 20 16 20 13 0 14 11 8 83 -3 45 -9 84 -11 87 -3 3 -11 -3 -18 -13 -12 -17 -14 -16 -20 12 -5 22 -12 31 -27 31 -17 0 -20 -5 -16 -30z">
			</path>
		</g>
	</g>
	<g id="l9K51gr2FYC38onMPmymp0" fill="rgb(110,102,83)" style="transform: none;">
		<g style="transform: none;">
			<path id="pFpv3Jmte" d="M328 1255 c5 -30 10 -31 28 -7 19 25 17 32 -10 32 -19 0 -22 -4 -18 -25z">
			</path>
			<path id="p3FpJ3SNw" d="M390 1260 c0 -11 2 -20 5 -20 2 0 9 9 15 20 9 16 8 20 -5 20 -8 0 -15 -9 -15 -20z">
			</path>
			<path id="plVxPX8PK" d="M450 1269 c0 -5 -4 -7 -10 -4 -5 3 -10 1 -10 -4 0 -14 11 -14 45 -1 14 5 24 6 21 2 -3 -5 -1 -22 4 -38 l10 -29 -4 28 c-2 15 1 27 5 27 5 0 9 7 9 15 0 10 -11 15 -35 15 -19 0 -35 -5 -35 -11z">
			</path>
			<path id="p3LyhIWiX" d="M590 1255 c0 -18 5 -25 20 -25 14 0 20 -7 20 -24 0 -18 7 -25 31 -30 46 -9 79 -7 79 4 0 6 -6 10 -13 10 -10 0 -13 13 -13 43 1 42 1 42 -38 45 -21 2 -43 -1 -49 -7 -14 -14 -30 -14 -22 -1 3 6 1 10 -4 10 -6 0 -11 -11 -11 -25z">
			</path>
			<path id="pBQVV4lMi" d="M988 1267 c-16 -6 -28 -14 -28 -19 0 -11 18 -10 42 3 18 10 20 9 15 -5 -4 -10 -1 -16 8 -16 8 0 15 4 15 9 0 5 3 16 6 25 7 19 -16 20 -58 3z">
			</path>
			<path id="pt8ErKcXT" d="M1060 1260 c0 -11 5 -20 10 -20 6 0 10 6 10 14 0 8 8 17 18 19 10 3 6 5 -10 6 -22 1 -28 -4 -28 -19z">
			</path>
			<path id="p19F1Ok6LC" d="M13 1255 c-15 -17 -17 -45 -4 -77 5 -13 12 -35 15 -50 6 -24 11 -28 41 -28 31 0 35 3 36 28 1 16 3 20 6 10 3 -12 14 -18 34 -18 25 0 29 -4 29 -28 0 -32 16 -52 42 -52 14 0 18 -8 18 -35 0 -19 5 -35 10 -35 6 0 10 -6 10 -14 0 -8 14 -17 30 -21 23 -5 30 -12 30 -31 0 -21 5 -24 36 -24 l37 0 -5 45 c-3 25 -2 45 3 45 5 0 9 18 9 40 0 39 -1 40 -37 42 -37 1 -37 1 -5 5 17 2 32 9 32 14 0 6 20 7 50 3 57 -8 66 5 23 33 -29 19 -38 21 -118 25 -48 3 -50 2 -53 -24 -2 -16 -7 -28 -12 -28 -23 0 -40 14 -40 34 0 40 -12 67 -27 62 -8 -4 -17 4 -23 18 -5 13 -13 27 -18 30 -12 7 -26 -22 -23 -49 3 -16 0 -17 -12 -7 -8 7 -13 21 -10 31 3 13 -2 21 -17 26 -12 4 -24 4 -27 1 -4 -3 -1 -6 5 -6 16 0 15 -18 -2 -36 -13 -12 -16 -11 -22 8 -4 13 -6 35 -5 51 3 30 -15 36 -36 12z m337 -145 c0 -5 -12 -10 -26 -10 -14 0 -23 4 -19 10 3 6 15 10 26 10 10 0 19 -4 19 -10z">
			</path>
			<path id="pusL3JQcM" d="M86 1251 c-19 -7 -19 -8 2 -13 15 -4 22 -2 22 8 0 8 -1 14 -2 13 -2 0 -12 -4 -22 -8z">
			</path>
			<path id="ptTrcDT0Y" d="M870 1050 c0 -5 10 -10 23 -10 18 0 19 2 7 10 -19 13 -30 13 -30 0z">
			</path>
			<path id="pude0rST4" d="M847 1020 c3 -11 9 -20 14 -20 11 0 11 3 3 24 -9 23 -23 20 -17 -4z">
			</path>
			<path id="pz2pqlKtj" d="M462 950 c5 -81 16 -109 38 -95 9 6 9 9 -1 15 -10 7 -9 11 2 22 8 8 20 13 27 10 18 -6 15 6 -10 41 -13 17 -23 36 -24 42 0 5 -2 18 -2 28 -1 9 -9 17 -18 17 -14 0 -16 -11 -12 -80z">
			</path>
			<path id="pRGMrREVL" d="M1010 980 c-9 -16 -8 -18 5 -14 8 4 15 3 15 -1 0 -8 -27 -36 -35 -35 -20 1 -25 -2 -25 -15 0 -20 -45 -10 -71 16 -20 20 -49 25 -49 9 0 -5 -5 -10 -11 -10 -6 0 -9 7 -5 15 7 18 -2 45 -16 45 -5 0 -8 -6 -7 -12 4 -31 -2 -40 -21 -35 -13 3 -20 0 -20 -9 0 -8 6 -11 15 -8 8 4 15 1 15 -5 0 -16 32 -13 59 6 14 9 21 12 18 5 -4 -6 7 -21 25 -33 18 -13 36 -27 39 -32 4 -5 16 -6 27 -3 17 6 19 3 15 -13 -3 -13 -10 -18 -21 -13 -15 5 -15 4 -3 -11 17 -22 28 -22 34 1 2 9 8 -3 13 -28 8 -38 7 -46 -6 -49 -8 -2 -18 -8 -22 -14 -11 -18 -48 -19 -48 -1 0 14 -2 15 -17 3 -13 -11 -17 -11 -20 -1 -6 17 -33 15 -33 -2 0 -8 5 -18 10 -21 6 -4 7 -11 4 -17 -4 -7 -2 -8 4 -4 7 4 12 3 12 -2 0 -13 39 -22 46 -11 3 5 16 9 30 9 15 0 24 6 24 15 0 10 10 15 29 15 45 0 61 10 61 36 0 21 5 24 35 24 31 0 36 4 41 29 4 16 14 31 24 34 19 5 35 48 16 44 -15 -3 -8 34 9 48 9 7 11 17 4 34 -9 23 -10 23 -23 6 -7 -10 -19 -16 -27 -13 -8 3 -36 2 -62 -2 -27 -4 -47 -3 -47 2 0 5 -7 16 -15 24 -12 13 -15 12 -25 -6z m144 -51 c-8 -13 -24 -1 -24 18 0 13 3 13 15 3 8 -7 12 -16 9 -21z">
			</path>
			<path id="pABbZAJzS" d="M1222 895 c3 -14 1 -25 -3 -25 -5 0 -9 -4 -9 -10 0 -5 7 -10 15 -10 10 0 15 11 15 35 0 19 -5 35 -11 35 -7 0 -9 -10 -7 -25z">
			</path>
			<path id="pYTfKln1D" d="M760 878 c0 -25 3 -29 12 -20 7 7 22 12 35 12 13 0 23 4 23 10 0 5 -6 7 -13 4 -8 -3 -20 2 -27 11 -20 24 -30 18 -30 -17z">
			</path>
			<path id="pPVzsmxd9" d="M516 875 c4 -8 10 -12 15 -9 14 8 10 24 -6 24 -9 0 -12 -6 -9 -15z">
			</path>
			<path id="p94kjVFdn" d="M1192 775 c2 -61 10 -81 21 -52 3 7 6 5 6 -5 1 -10 5 -18 10 -18 5 0 12 -8 15 -17 3 -10 3 1 0 25 -5 34 -3 42 10 42 17 0 21 27 10 68 -5 17 -14 22 -40 22 l-34 0 2 -65z">
			</path>
			<path id="pMaq4sisZ" d="M490 773 c0 -27 -4 -43 -8 -37 -12 18 -69 44 -97 44 -15 0 -33 -7 -41 -15 -9 -8 -24 -15 -35 -15 -15 0 -19 -7 -19 -33 l0 -32 -75 3 -75 4 0 -34 c0 -34 2 -35 53 -46 28 -7 66 -13 82 -15 29 -2 30 -4 27 -42 -2 -22 -8 -41 -13 -43 -5 -2 -9 -19 -9 -37 l0 -34 75 0 75 0 0 30 c0 26 3 29 30 29 29 0 30 2 31 48 1 41 2 44 9 19 5 -15 4 -55 -1 -90 -10 -66 -2 -167 12 -167 5 0 9 -11 9 -23 0 -13 9 -32 21 -43 18 -16 35 -19 125 -17 57 1 112 4 122 7 15 5 17 1 14 -34 -4 -40 -4 -40 31 -40 32 0 35 3 41 37 3 21 6 61 6 90 0 46 2 51 20 46 11 -3 20 0 20 6 0 6 -9 16 -20 23 -47 29 4 39 67 13 34 -15 35 -16 17 -29 -10 -8 -20 -10 -22 -5 -2 5 -10 9 -19 9 -26 0 -8 -24 25 -34 30 -8 32 -12 31 -50 -1 -40 -1 -40 -12 -13 -7 17 -16 26 -25 22 -7 -3 -20 -5 -29 -5 -9 0 -13 -6 -9 -15 3 -8 1 -15 -5 -15 -15 0 -3 -48 16 -67 17 -16 21 -103 5 -103 -5 0 -10 -16 -10 -35 l0 -35 50 0 c33 0 50 4 51 13 0 6 2 24 3 40 1 15 -1 27 -5 27 -4 0 -5 9 -2 19 3 10 0 28 -6 39 -6 12 -8 23 -3 26 4 2 5 34 2 71 -5 55 -3 65 10 63 8 -2 18 -18 21 -38 6 -31 13 -20 12 17 0 7 21 0 53 -17 43 -25 57 -28 78 -20 14 5 26 14 26 20 0 5 7 10 15 10 8 0 15 5 15 10 0 6 -5 10 -11 10 -5 0 -8 4 -5 9 3 5 -13 11 -36 14 -22 3 -44 10 -47 15 -12 18 -48 23 -60 8 -14 -17 -41 -10 -41 10 0 8 -7 14 -15 14 -9 0 -25 9 -37 19 -11 11 -28 17 -37 15 -13 -5 -13 -3 2 6 9 6 23 8 30 4 7 -5 6 -1 -2 10 -12 15 -12 19 -1 26 7 4 20 6 28 2 10 -4 13 -1 8 7 -5 7 -14 10 -21 7 -7 -2 -17 0 -23 6 -6 6 -12 6 -16 -1 -9 -14 -35 9 -29 25 2 7 0 15 -6 19 -17 10 -13 -33 5 -60 19 -29 9 -32 -25 -8 -14 9 -21 11 -17 5 4 -7 2 -12 -3 -12 -6 0 -11 7 -11 15 0 8 8 15 18 15 14 0 14 3 -5 18 -12 9 -24 26 -26 37 -1 11 -6 26 -11 34 -7 11 -10 11 -18 0 -6 -10 -7 -7 -3 9 4 15 2 22 -7 23 -65 4 -78 3 -78 -3 0 -5 -5 -8 -11 -8 -5 0 -2 13 7 30 17 27 17 30 1 48 -9 10 -17 25 -17 33 0 9 -5 7 -12 -6 -6 -11 -19 -26 -29 -33 -14 -10 -16 -18 -8 -47 7 -24 6 -41 -1 -56 -8 -14 -8 -29 -1 -49 6 -18 6 -32 0 -35 -5 -4 -9 0 -9 8 0 8 -7 18 -16 21 -8 3 -12 10 -9 16 3 5 0 10 -7 10 -10 0 -10 2 1 9 7 5 10 14 6 21 -6 10 -9 9 -15 0 -4 -7 -13 -9 -19 -6 -14 9 -14 36 0 36 5 0 7 5 4 10 -10 15 -23 12 -28 -7 -4 -17 -5 -17 -6 0 0 9 -7 17 -14 17 -8 0 -12 12 -11 33 1 38 -13 97 -25 97 -15 0 1 59 18 63 11 3 9 5 -6 6 -13 1 -23 7 -23 16 0 8 -7 15 -15 15 -11 0 -15 -12 -15 -47z m-97 -35 c30 -15 51 -38 37 -38 -18 0 -70 30 -70 40 0 13 7 13 33 -2z m47 -102 c0 -2 -7 -9 -15 -16 -12 -10 -15 -10 -15 4 0 9 7 16 15 16 8 0 15 -2 15 -4z m140 -148 c0 -6 -3 -8 -7 -5 -3 4 -12 -1 -19 -11 -12 -16 -13 -15 -14 5 0 12 6 23 13 26 15 5 27 -1 27 -15z m211 -13 c8 5 6 -1 -4 -12 -17 -20 -14 -58 5 -47 5 3 7 13 3 22 -3 9 -3 13 1 9 4 -4 13 1 20 11 10 13 17 15 30 6 36 -22 24 -54 -22 -57 -25 -2 -29 -7 -30 -32 0 -17 6 -36 13 -43 11 -11 13 -11 13 2 0 10 9 16 25 16 18 0 25 -5 25 -19 0 -24 -16 -28 -125 -30 -49 -1 -93 -5 -97 -7 -4 -3 -8 -1 -8 4 0 6 23 13 51 17 39 5 49 10 45 22 -3 8 -6 19 -6 24 0 6 -3 8 -8 5 -4 -2 -12 7 -19 20 -10 22 -10 24 14 18 24 -6 24 -6 18 39 -9 58 2 78 25 47 12 -15 22 -20 31 -15z m-141 -4 c0 -5 -7 -11 -15 -15 -8 -3 -15 -13 -15 -21 0 -9 -4 -13 -10 -10 -6 4 -4 16 6 31 16 24 34 32 34 15z m-38 -86 c0 -5 -5 -11 -11 -13 -6 -2 -11 4 -11 13 0 9 5 15 11 13 6 -2 11 -8 11 -13z m258 -107 c0 -4 -19 -8 -42 -7 -34 1 -38 2 -18 8 32 9 60 9 60 -1z m129 -128 l-1 -25 -8 25 c-7 23 -8 23 -10 -10 l-2 -35 -7 30 c-4 17 -3 32 1 33 4 2 8 11 8 20 0 15 2 15 10 2 5 -8 9 -26 9 -40z">
			</path>
			<path id="pE5Yt5m2x" d="M771 803 c0 -10 7 -45 14 -78 l14 -60 -1 46 c-1 25 2 51 7 59 5 9 4 11 -3 6 -8 -5 -12 0 -12 13 0 11 -4 23 -10 26 -5 3 -10 -2 -9 -12z">
			</path>
			<path id="pov8XY89a" d="M1110 715 c0 -33 2 -35 35 -35 33 0 35 2 35 35 0 33 -2 35 -35 35 -33 0 -35 -2 -35 -35z">
			</path>
			<path id="pQMOg9tfQ" d="M60 685 c0 -33 2 -35 35 -35 33 0 35 2 35 35 0 33 -2 35 -35 35 -33 0 -35 -2 -35 -35z">
			</path>
			<path id="puF3F9qSf" d="M826 705 c-4 -11 -2 -22 6 -26 17 -11 20 -6 10 21 -8 21 -9 22 -16 5z">
			</path>
			<path id="ps8skxI6e" d="M1138 606 c-10 -7 -18 -18 -18 -25 0 -6 -7 -11 -16 -11 -8 0 -22 -6 -30 -14 -17 -17 -19 -30 -3 -20 8 5 10 -3 7 -26 -4 -24 0 -38 14 -52 10 -10 16 -24 12 -30 -4 -7 -3 -8 4 -4 12 7 38 -32 34 -51 -4 -17 13 -16 27 1 9 11 9 16 0 21 -8 6 -7 10 2 17 12 7 11 11 -3 20 -15 11 -15 13 5 23 12 6 23 20 25 31 2 17 -2 21 -26 21 -16 0 -40 7 -53 16 -23 17 -23 17 -2 17 12 0 25 -4 28 -10 3 -5 19 -10 36 -10 16 0 29 5 29 10 0 6 -4 10 -9 10 -5 0 -11 9 -14 20 -3 11 0 20 5 20 6 0 3 9 -7 20 -21 23 -24 24 -47 6z m-10 -128 c-6 -18 -28 -21 -28 -4 0 9 7 16 16 16 9 0 14 -5 12 -12z">
			</path>
			<path id="p51uO5KVo" d="M0 570 c0 -33 3 -40 20 -40 17 0 20 7 20 40 0 33 -3 40 -20 40 -17 0 -20 -7 -20 -40z">
			</path>
			<path id="p12XpTyYXI" d="M90 588 c0 -46 20 -142 31 -148 6 -5 3 -9 -10 -13 -13 -3 -21 -13 -21 -26 0 -12 -6 -21 -15 -21 -8 0 -15 -4 -15 -9 0 -5 -14 -12 -30 -16 l-30 -7 1 -74 c1 -66 3 -74 20 -74 11 0 22 7 25 15 5 11 22 15 70 15 l64 0 0 50 c0 28 5 50 10 50 16 0 12 70 -5 76 -21 8 -19 21 5 27 15 4 20 14 20 41 0 20 -4 36 -9 36 -5 0 -6 20 -4 44 5 42 4 43 -27 50 -61 12 -80 8 -80 -16z m70 -195 c-1 -14 -44 -60 -67 -72 -39 -20 -37 -12 8 34 42 42 59 53 59 38z">
			</path>
			<path id="pKk6EWhf" d="M960 588 c0 -7 11 -21 25 -30 23 -18 24 -18 21 10 -2 19 -10 28 -25 30 -12 2 -21 -2 -21 -10z">
			</path>
			<path id="pWpIQ0JCS" d="M1224 519 c-9 -11 -14 -22 -11 -25 3 -4 0 -19 -8 -35 -13 -25 -13 -30 1 -44 9 -8 14 -22 11 -30 -3 -7 1 -19 9 -25 11 -10 14 -9 14 5 0 14 3 15 15 5 13 -10 15 -9 16 11 4 64 0 111 -10 123 -10 11 -8 15 6 18 15 3 15 5 -4 10 -15 4 -28 -1 -39 -13z">
			</path>
			<path id="p9UQYtk9M" d="M377 358 c-14 -168 -7 -198 50 -198 l36 0 -7 53 c-3 28 -6 85 -6 125 l0 72 -34 0 c-34 0 -35 0 -39 -52z">
			</path>
			<path id="pANqj7vWd" d="M1244 233 c2 -13 0 -23 -5 -23 -5 0 -9 4 -9 8 0 4 -9 8 -21 8 -18 0 -18 -2 -5 -12 12 -9 16 -31 16 -98 0 -51 4 -86 10 -86 6 0 10 35 10 84 0 50 4 86 11 88 7 2 7 11 -1 28 -9 23 -10 23 -6 3z">
			</path>
			<path id="pNs4fqItG" d="M290 215 c0 -11 -11 -15 -39 -15 -38 0 -38 0 -45 -46 -10 -80 -9 -84 24 -84 25 0 30 -4 30 -25 0 -22 4 -25 35 -25 33 0 35 2 35 35 0 32 -2 35 -30 35 -20 0 -30 5 -30 15 0 8 5 15 10 15 6 0 10 9 10 20 0 16 7 20 35 20 33 0 35 2 35 35 0 33 -2 35 -35 35 -24 0 -35 -5 -35 -15z">
			</path>
			<path id="p1E3OX4diZ" d="M1049 133 c-2 -46 -1 -93 3 -105 6 -23 7 -15 13 93 1 17 -1 45 -5 63 -5 23 -8 10 -11 -51z">
			</path>
			<path id="ptBH6R7li" d="M0 46 c0 -43 2 -46 26 -46 23 0 25 3 22 43 -2 35 -7 43 -25 45 -21 3 -23 -1 -23 -42z">
			</path>
		</g>
	</g>
	<g id="l4F9GBSiC6T5uvGp1Gq0lXM" fill="rgb(118,115,105)" style="transform: none;">
		<g style="transform: none;">
			<path id="pmoIrYkJP" d="M330 1265 c6 -8 9 -19 5 -25 -3 -5 -3 -10 2 -10 4 0 13 11 20 25 10 23 9 25 -14 25 -21 0 -23 -2 -13 -15z">
			</path>
			<path id="p2FmgifM9" d="M455 1269 c-4 -6 -4 -13 -1 -16 3 -4 6 -1 6 5 0 6 7 9 15 6 8 -4 15 -1 15 5 0 14 -27 14 -35 0z">
			</path>
			<path id="pZuz1B0oH" d="M497 1266 c-3 -8 -2 -27 3 -43 l8 -28 1 28 c1 24 3 26 20 15 13 -8 19 -21 17 -37 -2 -15 -1 -17 1 -7 4 16 7 17 14 5 8 -12 10 -12 19 1 7 11 10 6 10 -22 0 -35 2 -38 28 -38 28 0 36 -8 72 -67 24 -41 60 -45 60 -9 0 14 -5 28 -11 32 -7 4 -9 24 -6 49 4 37 1 44 -15 49 -11 2 -17 9 -13 15 9 15 -18 14 -33 -1 -9 -9 -12 -9 -12 0 0 6 11 14 25 18 25 6 35 24 14 24 -6 0 -17 7 -25 15 -17 17 -49 21 -39 5 3 -5 -3 -10 -15 -10 -12 0 -19 4 -16 8 3 5 -19 9 -49 10 -37 1 -55 -3 -58 -12z">
			</path>
			<path id="pvVWwgrWI" d="M1015 1270 c-3 -5 -2 -10 4 -10 6 0 7 -7 4 -17 -4 -11 -3 -14 5 -9 14 9 16 46 3 46 -6 0 -13 -4 -16 -10z">
			</path>
			<path id="pqtNBSRZQ" d="M1067 1264 c3 -9 9 -11 12 -6 3 5 13 12 21 15 9 3 4 6 -12 6 -21 1 -26 -3 -21 -15z">
			</path>
			<path id="pO5pFgoWl" d="M20 1186 c0 -32 2 -34 35 -33 22 1 35 6 35 14 0 7 5 13 10 13 6 0 9 10 9 23 -1 13 -3 16 -5 7 -3 -9 -13 -21 -23 -27 -15 -10 -20 -8 -31 13 -19 34 -30 30 -30 -10z">
			</path>
			<path id="p1Bw74qZf7" d="M355 1110 c-4 -12 -14 -20 -23 -19 -48 4 -53 0 -46 -36 5 -28 3 -35 -10 -35 -10 0 -13 6 -9 15 3 9 -3 25 -13 36 -23 26 -34 10 -34 -53 0 -44 2 -48 24 -48 12 0 37 5 55 11 27 9 31 16 31 45 0 31 3 34 30 34 18 0 30 5 30 13 0 9 11 12 35 9 32 -4 35 -7 35 -38 0 -24 -5 -34 -15 -34 -18 0 -21 -66 -4 -72 8 -3 7 -20 -5 -60 -9 -31 -16 -68 -16 -82 0 -23 4 -26 34 -26 19 0 41 3 50 6 23 9 20 41 -5 49 -19 6 -19 8 -4 25 12 13 13 19 4 22 -17 6 -3 27 25 38 17 7 17 9 4 9 -12 1 -18 9 -19 24 0 21 -1 21 -10 2 -6 -15 -8 -4 -8 40 2 82 2 79 -28 109 -18 19 -35 26 -50 23 -13 -2 -23 0 -23 4 0 18 -29 8 -35 -11z">
			</path>
			<path id="ppvC4Bb80" d="M740 946 c0 -19 5 -38 10 -41 6 -3 10 -18 10 -32 0 -26 0 -26 20 -8 18 16 19 20 5 35 -16 18 -11 30 12 30 8 0 11 -4 8 -10 -3 -5 3 -10 15 -10 31 0 19 24 -13 28 -15 2 -32 12 -37 23 -16 30 -30 23 -30 -15z">
			</path>
			<path id="pmdR5TP2y" d="M1030 963 c1 -25 20 -32 50 -20 8 3 22 8 30 11 8 3 -2 4 -22 1 -23 -4 -38 -2 -38 5 0 5 -4 10 -10 10 -5 0 -10 -3 -10 -7z">
			</path>
			<path id="p8tgk0wLq" d="M1150 949 c0 -5 5 -9 11 -9 6 0 3 -7 -6 -16 -12 -13 -19 -14 -28 -5 -16 16 -44 14 -51 -4 -7 -18 15 -20 32 -3 9 9 12 8 12 -5 0 -9 5 -17 10 -17 6 0 10 -5 10 -10 0 -12 -48 -3 -67 12 -6 5 -20 9 -30 8 -33 -4 -43 0 -43 15 0 9 -6 12 -16 8 -9 -3 -14 -13 -11 -24 3 -13 0 -16 -11 -12 -10 4 -13 2 -8 -5 4 -7 13 -12 20 -12 8 0 11 -11 10 -32 -3 -30 -3 -30 5 -8 7 22 9 20 16 -23 7 -42 10 -47 29 -42 17 5 18 4 6 -4 -8 -6 -25 -11 -36 -11 -12 0 -24 -7 -28 -15 -7 -18 -46 -20 -46 -2 -1 7 -6 5 -14 -6 -12 -15 -14 -16 -20 -2 -6 17 -36 21 -36 4 0 -5 5 -7 10 -4 6 3 10 -1 10 -9 0 -9 12 -23 26 -32 19 -13 22 -19 12 -25 -9 -6 -10 -9 -1 -9 7 0 20 -17 30 -37 18 -39 40 -63 58 -62 6 0 4 3 -3 6 -9 4 -10 8 -2 18 8 9 8 15 0 20 -25 15 -7 22 19 7 25 -14 29 -21 24 -46 -6 -26 -4 -29 16 -23 21 5 23 3 19 -24 -4 -24 2 -38 28 -65 19 -19 37 -46 40 -60 6 -23 8 -24 17 -9 7 12 5 20 -4 26 -11 7 -9 9 5 9 18 0 18 2 -5 27 -17 18 -19 24 -7 20 21 -8 56 29 41 44 -8 8 -13 7 -18 0 -4 -8 -15 -5 -33 7 -15 11 -34 22 -42 25 -8 3 -1 6 15 6 17 1 36 -4 43 -11 20 -20 40 7 24 32 -10 17 -10 20 3 20 12 0 12 3 -2 20 -10 11 -28 20 -41 20 -15 0 -22 5 -19 13 2 7 21 12 45 12 44 0 54 13 27 35 -8 7 -15 19 -15 26 0 8 6 11 15 8 8 -4 15 -1 15 5 0 6 4 11 10 11 5 0 7 -7 4 -15 -4 -8 -1 -15 5 -15 6 0 11 11 11 25 0 18 5 25 20 25 18 0 20 7 20 56 0 40 -6 67 -21 90 -23 37 -44 36 -36 -2 2 -13 1 -24 -4 -24 -4 0 -10 -8 -12 -17 -4 -14 -5 -13 -6 4 0 12 -6 23 -13 25 -13 5 -3 59 11 55 5 -1 11 3 13 8 1 6 -12 11 -29 12 -18 1 -33 -3 -33 -8z m-86 -120 c-6 -11 -44 -12 -44 -1 0 4 11 8 25 8 14 1 22 -2 19 -7z m66 -351 c0 -21 -25 -24 -33 -4 -7 17 -2 23 18 23 8 0 15 -9 15 -19z">
			</path>
			<path id="p5dacCcBb" d="M1250 956 c0 -2 7 -9 15 -16 12 -10 15 -10 15 4 0 9 -7 16 -15 16 -8 0 -15 -2 -15 -4z">
			</path>
			<path id="pfrzsScoq" d="M771 805 c0 -11 7 -47 14 -80 l15 -60 -5 69 c-2 38 -9 74 -14 79 -8 8 -11 5 -10 -8z">
			</path>
			<path id="p1AfOMwCC4" d="M310 775 c0 -8 -5 -15 -11 -15 -7 0 -10 -18 -7 -50 2 -42 0 -50 -14 -50 -14 0 -18 -8 -18 -35 0 -27 4 -35 18 -35 9 0 27 -3 40 -6 16 -5 22 -2 22 10 0 9 5 16 11 16 6 0 9 -7 5 -15 -3 -9 0 -15 9 -15 8 0 15 9 15 20 0 16 -7 20 -35 20 -50 0 -43 20 8 21 36 1 38 2 17 9 -18 6 -20 8 -7 9 10 1 15 6 12 12 -4 6 -13 8 -21 5 -8 -3 -14 1 -14 10 0 13 3 13 29 0 24 -13 30 -13 34 -2 6 16 -11 36 -30 36 -7 0 -13 7 -13 16 0 11 6 15 20 11 16 -4 20 0 20 19 0 22 -4 24 -45 24 -33 0 -45 -4 -45 -15z">
			</path>
			<path id="pJfncEr92" d="M455 699 c5 -14 3 -19 -4 -15 -5 4 -19 -2 -31 -14 -25 -25 -25 -28 3 -25 12 1 28 3 35 4 15 1 17 71 1 71 -6 0 -8 -9 -4 -21z">
			</path>
			<path id="pFnUvY4Q2" d="M713 651 c1 -5 -6 -16 -16 -23 -15 -11 -16 -18 -7 -42 7 -18 7 -32 1 -35 -5 -3 -11 -15 -13 -26 -2 -14 3 -21 20 -23 18 -3 22 1 22 25 0 15 3 52 6 81 5 36 3 52 -5 52 -6 0 -10 -4 -8 -9z">
			</path>
			<path id="prgYfnpSz" d="M533 583 c-7 -15 -13 -33 -13 -40 0 -7 -4 -13 -10 -13 -5 0 -10 -16 -10 -35 0 -19 5 -35 10 -35 6 0 10 -7 10 -15 0 -8 9 -15 21 -15 11 0 30 -5 41 -11 20 -11 21 -9 15 19 -4 17 -3 34 2 36 13 8 20 56 8 56 -5 0 -7 12 -4 26 3 18 1 22 -6 15 -14 -14 -30 -14 -22 -1 3 6 -1 10 -10 10 -11 0 -15 5 -11 15 10 26 -9 16 -21 -12z m47 -75 c0 -22 -5 -38 -11 -38 -7 0 -18 -8 -25 -17 -12 -17 -13 -16 -13 7 0 14 6 34 14 44 18 24 20 40 3 30 -6 -4 -8 -3 -5 3 3 5 13 10 22 10 11 0 15 -11 15 -39z">
			</path>
			<path id="p3TGMarOn" d="M1215 475 l-18 -55 29 -25 c24 -21 30 -22 37 -9 5 8 6 21 3 29 -3 8 0 15 7 18 8 2 7 15 -5 45 -11 29 -13 42 -4 46 6 2 1 5 -11 5 -17 1 -24 -9 -38 -54z">
			</path>
			<path id="p78i5xteq" d="M1010 513 c0 -5 5 -15 10 -23 8 -12 10 -11 10 8 0 12 -4 22 -10 22 -5 0 -10 -3 -10 -7z">
			</path>
			<path id="pegLzDI3X" d="M622 484 c-7 -14 -8 -23 -2 -19 15 9 32 45 22 45 -5 0 -14 -12 -20 -26z">
			</path>
			<path id="pwXGN4Dbz" d="M765 490 c3 -5 13 -10 22 -10 14 0 14 -3 -1 -24 -9 -14 -12 -27 -7 -31 5 -3 12 -1 16 5 3 5 3 10 -1 10 -4 0 3 8 14 19 32 27 27 41 -14 41 -21 0 -33 -4 -29 -10z">
			</path>
			<path id="psviqJkNK" d="M920 480 c0 -11 5 -20 10 -20 6 0 10 -6 10 -14 0 -8 6 -16 13 -19 6 -2 8 -8 4 -13 -4 -4 -17 -2 -29 5 -18 11 -22 11 -30 -3 -6 -11 -17 -14 -35 -10 -21 6 -25 4 -20 -9 4 -10 -2 -17 -19 -21 -14 -4 -22 -11 -19 -15 3 -5 0 -11 -7 -13 -8 -3 -6 -7 5 -11 11 -4 17 -1 17 7 0 9 8 12 25 8 15 -3 25 -11 25 -22 0 -18 -26 -30 -67 -30 -13 0 -23 -4 -23 -10 0 -6 18 -7 45 -3 31 4 45 2 45 -6 0 -12 -9 -14 -57 -11 -27 1 -33 -2 -33 -19 0 -12 5 -21 10 -21 6 0 10 -20 10 -43 l0 -44 68 -9 c59 -8 67 -12 70 -31 2 -16 -2 -23 -12 -23 -12 0 -16 -10 -16 -35 0 -33 2 -35 35 -35 19 0 35 5 35 10 0 6 8 10 19 10 10 0 21 9 24 20 3 11 1 20 -4 20 -5 0 -7 11 -3 25 3 14 3 32 0 41 -5 14 -9 13 -25 -7 l-18 -23 -5 32 c-2 18 -1 32 4 32 4 0 7 10 5 21 -1 12 4 23 11 25 7 1 8 0 2 -3 -12 -6 6 -43 22 -43 7 0 9 23 6 65 -3 57 -2 65 14 65 13 0 18 -8 19 -27 1 -23 2 -24 6 -6 3 14 9 20 19 16 25 -9 15 13 -17 36 -18 13 -29 19 -25 12 4 -6 2 -11 -4 -11 -6 0 -13 7 -17 16 -3 9 -12 13 -22 8 -9 -4 -26 -6 -39 -5 -31 1 -19 -16 17 -24 28 -6 41 -26 41 -67 0 -24 -17 -23 -24 0 -4 13 -16 19 -37 19 -21 0 -28 -4 -25 -14 3 -7 2 -13 -3 -13 -5 0 -13 -21 -19 -47 -9 -47 -10 -47 -12 -13 -2 33 -2 34 -11 10 -7 -21 -8 -20 -4 9 3 18 5 58 5 87 0 42 3 52 14 48 8 -3 17 -1 20 5 4 5 -3 12 -14 16 -23 7 -27 35 -5 35 8 0 15 5 15 12 0 7 7 5 18 -5 9 -8 30 -19 46 -23 26 -6 28 -5 15 8 -7 9 -21 13 -29 11 -10 -3 -9 0 3 11 18 14 18 15 0 40 -10 14 -21 26 -25 26 -4 0 -5 7 -2 15 4 8 1 15 -5 15 -6 0 -11 -9 -11 -20z">
			</path>
			<path id="polTDE1vV" d="M627 454 c-8 -8 1 -24 14 -24 5 0 9 7 9 15 0 15 -12 20 -23 9z">
			</path>
			<path id="p1MVrukee" d="M700 421 c0 -11 26 -22 34 -14 12 12 5 23 -14 23 -11 0 -20 -4 -20 -9z">
			</path>
			<path id="pjwImeLIU" d="M614 390 c1 -24 5 -30 24 -30 18 0 22 5 21 33 0 17 -3 26 -6 20 -2 -7 -11 -13 -19 -13 -9 0 -12 5 -9 10 3 6 2 10 -3 10 -5 0 -9 -13 -8 -30z">
			</path>
			<path id="pjWuZeutP" d="M80 375 c0 -19 1 -35 3 -35 2 0 17 16 34 35 l31 35 -34 0 c-32 0 -34 -2 -34 -35z">
			</path>
			<path id="pzP3XsrVH" d="M690 361 c0 -23 -5 -31 -22 -34 -13 -2 -2 -5 24 -6 41 -1 46 1 41 19 -3 11 -9 17 -14 14 -5 -3 -9 2 -9 10 0 8 -4 18 -10 21 -6 4 -10 -6 -10 -24z">
			</path>
			<path id="pv9nGmZvW" d="M668 293 c-10 -2 -18 -11 -18 -19 0 -18 44 -18 63 0 7 8 25 16 38 19 13 2 4 4 -21 4 -25 1 -53 -1 -62 -4z">
			</path>
			<path id="pbjNzExgj" d="M1227 193 c-3 -5 -5 -50 -6 -100 0 -79 2 -93 15 -93 13 0 15 6 9 27 -3 15 -6 60 -6 100 0 69 -2 83 -12 66z">
			</path>
			<path id="p47cvSWq3" d="M1052 105 c0 -69 2 -81 8 -50 4 22 10 48 15 58 4 10 3 17 -5 17 -6 0 -9 4 -6 9 4 5 2 20 -3 33 -7 17 -10 -1 -9 -67z">
			</path>
		</g>
	</g>
	<g id="l2DVJRrnYh1Tj4eiPNvpwNt" fill="rgb(142,132,113)" style="transform: none;">
		<g style="transform: none;">
			<path id="p43JdzXk0" d="M635 1270 c3 -5 0 -10 -7 -10 -8 -1 -6 -6 6 -15 10 -7 15 -18 11 -24 -10 -17 -22 -13 -30 12 -6 21 -7 20 -17 -10 -15 -46 -5 -63 36 -63 19 0 38 5 41 10 4 6 1 9 -6 8 -7 -2 -15 5 -17 15 -3 13 5 21 27 30 34 13 48 36 29 49 -19 11 -80 10 -73 -2z">
			</path>
			<path id="ptBTQ6LU4" d="M10 1231 c-11 -21 -3 -104 13 -136 5 -10 9 -41 8 -68 l-1 -48 37 3 c34 3 38 6 41 34 3 26 8 33 31 36 16 2 39 1 51 -4 22 -8 22 -12 16 -88 l-7 -80 25 0 c19 0 26 -5 26 -20 0 -16 7 -20 35 -20 23 0 35 5 35 14 0 9 18 16 51 20 28 4 53 5 56 3 2 -3 7 -21 10 -41 l6 -37 -50 7 c-58 7 -93 -7 -93 -36 0 -11 -4 -20 -10 -20 -5 0 -10 -14 -10 -31 0 -27 -3 -30 -22 -23 -25 8 -48 28 -48 42 0 9 -27 13 -162 29 l-48 5 0 -35 c0 -26 5 -36 20 -40 12 -3 20 -14 20 -25 0 -18 9 -22 58 -27 65 -7 87 -13 55 -14 -20 -1 -23 -6 -23 -46 0 -38 -3 -45 -20 -45 -17 0 -20 -7 -20 -45 0 -33 4 -45 15 -45 8 0 15 -7 15 -15 0 -8 -9 -15 -19 -15 -10 0 -21 -7 -25 -15 -3 -8 -15 -15 -26 -15 -11 0 -20 -7 -20 -15 0 -8 -7 -15 -15 -15 -19 0 -22 -96 -2 -103 9 -3 9 -7 -2 -20 -12 -15 -11 -17 5 -17 33 0 134 24 134 32 0 4 7 8 15 8 9 0 15 9 15 24 0 14 5 28 10 31 6 3 10 30 10 60 0 30 4 56 9 60 15 9 26 116 12 124 -13 9 -27 71 -15 71 5 0 15 -9 22 -20 7 -11 19 -20 27 -20 8 0 15 -9 15 -20 0 -11 7 -20 15 -20 9 0 15 -9 15 -25 0 -20 5 -25 25 -25 21 0 25 -5 25 -30 0 -28 3 -30 34 -30 28 0 35 4 38 23 2 16 11 23 31 25 20 3 27 9 27 25 0 12 4 28 9 36 5 8 7 -21 5 -70 -2 -46 1 -117 7 -157 10 -59 15 -72 30 -72 11 0 19 -7 19 -17 0 -14 12 -15 120 -9 l120 7 0 -36 c0 -36 1 -36 38 -33 34 3 37 6 40 36 2 18 -1 32 -7 32 -6 0 -11 -13 -11 -30 0 -16 -4 -30 -9 -30 -5 0 -9 15 -9 34 0 25 5 36 19 39 10 3 19 10 19 15 0 6 -8 8 -18 5 -10 -2 -34 0 -53 5 -24 7 -28 10 -12 11 12 1 25 6 29 13 5 8 -17 10 -89 5 -54 -4 -97 -3 -97 2 0 12 26 21 61 21 16 0 29 4 29 9 0 18 -21 66 -33 74 -7 5 -1 7 16 4 33 -5 37 17 5 28 l-23 8 23 4 c20 4 23 9 19 39 -5 34 -5 35 17 19 11 -9 29 -18 39 -22 9 -3 17 -13 17 -22 0 -13 2 -13 9 -2 5 8 19 12 34 9 17 -3 28 0 31 9 7 18 -40 66 -55 57 -6 -3 -15 0 -20 7 -6 10 -9 11 -9 2 0 -7 -7 -13 -15 -13 -8 0 -15 7 -15 16 0 11 -6 13 -19 9 -16 -5 -18 -2 -14 17 3 13 10 29 16 35 12 16 -11 76 -25 67 -5 -3 -7 -12 -4 -19 3 -8 -2 -19 -11 -26 -10 -9 -13 -23 -10 -45 3 -19 0 -40 -9 -52 -9 -14 -11 -23 -4 -27 14 -9 8 -85 -7 -82 -12 2 -73 -60 -73 -75 0 -5 -5 -6 -10 -3 -6 4 -8 16 -4 28 4 12 9 40 10 62 2 22 4 47 5 55 5 36 -2 70 -14 70 -9 0 -12 -10 -9 -30 2 -17 9 -30 14 -30 5 0 3 -7 -6 -15 -8 -9 -13 -22 -10 -30 4 -8 1 -15 -6 -15 -6 0 -8 5 -5 10 9 14 -8 13 -23 -2 -9 -9 -12 -6 -12 16 0 15 7 35 16 44 12 11 13 17 5 20 -9 3 -7 10 5 24 14 15 15 21 6 27 -7 4 -10 15 -6 24 3 10 1 17 -5 17 -6 0 -8 7 -4 17 4 11 3 14 -5 9 -9 -5 -10 -1 -4 16 9 25 5 58 -6 58 -4 0 -7 18 -7 41 0 43 -24 73 -51 62 -20 -7 -17 7 4 23 13 10 14 16 5 22 -9 6 -7 12 8 26 19 16 20 19 5 35 -9 10 -16 22 -16 28 0 6 -6 14 -12 16 -8 3 -6 6 5 6 13 1 17 10 17 42 0 22 -4 48 -10 58 -10 20 -67 47 -77 37 -3 -3 -12 -1 -20 6 -11 9 -15 7 -20 -10 -3 -15 -14 -22 -37 -24 -28 -3 -31 -6 -29 -32 2 -27 -18 -55 -39 -56 -13 0 -9 28 4 32 7 3 5 13 -7 32 -11 17 -21 23 -25 16 -5 -7 -11 -6 -20 5 -10 12 -10 15 2 15 24 0 16 32 -14 62 -16 15 -28 34 -28 43 0 8 -4 15 -9 15 -14 0 -20 -25 -14 -52 6 -23 6 -23 -15 -4 -12 11 -22 25 -22 33 0 10 -7 8 -22 -7 -21 -20 -23 -20 -35 -4 -7 10 -13 28 -13 41 0 28 -16 30 -30 4z m418 -167 c22 -15 31 -64 12 -64 -5 0 -10 -9 -10 -20 0 -11 -7 -20 -15 -20 -9 0 -15 9 -15 25 0 16 -6 25 -15 25 -8 0 -15 9 -15 20 0 11 5 20 10 20 6 0 10 7 10 15 0 19 10 19 38 -1z m-98 -94 c13 -9 13 -10 0 -9 -8 0 -24 4 -35 9 l-20 9 20 0 c11 0 27 -4 35 -9z m82 -236 c33 -17 48 -31 48 -47 0 -5 -4 -6 -9 -3 -4 3 -16 -3 -25 -13 -14 -16 -15 -21 -4 -28 7 -4 14 -16 14 -25 1 -10 -2 -15 -7 -12 -5 3 -9 -2 -9 -12 0 -12 6 -15 21 -11 16 4 18 3 8 -9 -6 -8 -8 -14 -3 -14 5 0 -4 -7 -20 -15 -35 -19 -37 -19 -30 0 4 10 -2 18 -17 23 -23 9 -23 9 4 16 33 8 35 22 5 30 -34 9 -38 7 -32 -8 3 -8 1 -17 -5 -21 -7 -3 -11 2 -11 14 0 12 -7 21 -15 21 -8 0 -15 5 -15 10 0 6 6 10 14 10 24 0 29 19 12 45 -26 39 -18 49 15 21 35 -30 49 -33 49 -11 0 9 -11 20 -24 24 -29 12 -43 41 -16 36 10 -2 33 -11 52 -21z m-162 -89 c15 -18 16 -18 -40 -1 l-45 15 36 0 c21 1 42 -5 49 -14z m-70 -164 c0 -13 -12 -20 -25 -14 -8 2 -11 11 -9 18 6 14 34 10 34 -4z m390 -70 c0 -22 -23 -34 -38 -19 -7 7 -7 15 1 24 17 19 37 17 37 -5z m-407 -31 c3 -11 2 -18 -3 -15 -12 7 -33 -22 -25 -35 4 -6 9 -24 12 -41 3 -22 0 -29 -12 -29 -11 0 -15 7 -13 23 3 20 -2 23 -47 27 -44 4 -47 6 -23 13 15 4 39 23 54 42 30 39 49 45 57 15z m427 -106 c0 -18 -4 -18 -24 5 -17 19 -17 19 3 14 12 -3 21 -12 21 -19z m158 -11 c-10 -2 -26 -2 -35 0 -10 3 -2 5 17 5 19 0 27 -2 18 -5z">
			</path>
			<path id="pJuAAiNqD" d="M991 922 c-1 -7 -5 -11 -10 -8 -5 3 -11 -3 -14 -14 -3 -11 0 -23 5 -27 6 -3 8 -1 5 4 -4 6 0 13 8 17 8 3 15 1 15 -4 0 -5 11 -12 25 -16 14 -3 25 -10 25 -15 0 -10 -29 -7 -47 4 -16 10 -16 6 -3 -27 5 -14 14 -26 19 -26 6 0 8 7 5 15 -4 10 0 15 14 15 11 0 26 2 34 5 12 5 15 -23 9 -87 -1 -5 -7 -8 -15 -8 -8 0 -16 -7 -20 -15 -7 -18 -33 -20 -39 -2 -2 6 -8 0 -12 -15 -4 -17 -12 -25 -20 -21 -8 2 -19 2 -26 -2 -21 -14 14 -24 63 -19 39 5 48 3 48 -10 0 -12 10 -16 35 -16 44 0 46 20 3 21 -19 1 -25 3 -15 6 14 4 18 12 14 29 -4 21 -1 23 19 20 18 -4 24 0 24 14 0 10 -6 21 -12 23 -10 4 -10 6 0 6 17 1 15 21 -3 21 -8 0 -15 3 -16 8 0 4 -2 17 -3 30 -4 38 19 25 48 -28 22 -40 43 -60 65 -60 12 1 9 7 -9 23 -14 12 -26 33 -27 47 -2 19 0 21 7 10 7 -11 9 -7 8 15 -1 17 -8 36 -15 43 -7 7 -13 23 -13 34 0 17 -2 18 -15 8 -12 -10 -19 -10 -27 -2 -16 16 -45 15 -51 -2 -6 -15 -50 -27 -65 -17 -5 3 -12 13 -15 21 -4 10 -6 11 -6 2z">
			</path>
			<path id="pkKVDwuxy" d="M1239 843 c8 -15 8 -23 1 -23 -5 0 -1 -9 10 -20 26 -26 28 -25 23 4 -3 14 -14 33 -26 43 -20 18 -20 18 -8 -4z">
			</path>
			<path id="pybGIGwmu" d="M140 805 c0 -34 1 -35 40 -35 39 0 40 1 40 35 0 34 -1 35 -40 35 -39 0 -40 -1 -40 -35z">
			</path>
			<path id="p19Fp4zdwM" d="M20 620 c0 -11 -4 -20 -8 -20 -4 0 -8 -16 -9 -35 -1 -31 2 -35 23 -35 17 0 24 6 24 20 0 13 7 20 20 20 16 0 20 7 20 35 0 33 -2 35 -35 35 -28 0 -35 -4 -35 -20z">
			</path>
			<path id="pGKmy5YBU" d="M794 569 c-3 -5 6 -9 20 -9 31 0 34 6 6 13 -11 3 -23 1 -26 -4z">
			</path>
			<path id="pSBrAeSDN" d="M1230 502 c0 -6 6 -13 13 -15 7 -3 5 -6 -5 -6 -10 -1 -18 -7 -18 -15 0 -8 -6 -17 -12 -20 -10 -5 -10 -7 0 -12 6 -3 12 -12 12 -20 0 -16 2 -16 24 -8 8 3 12 12 9 20 -3 9 2 14 13 14 12 0 15 3 8 8 -7 4 -14 18 -15 31 -4 23 -29 43 -29 23z">
			</path>
			<path id="pCR0awKUX" d="M1133 474 c-13 -28 -1 -70 17 -59 6 4 5 14 -2 25 -10 15 -10 22 0 32 13 13 16 28 5 28 -5 0 -13 -12 -20 -26z">
			</path>
			<path id="p128CfBb3M" d="M630 445 c0 -8 5 -15 10 -15 6 0 10 7 10 15 0 8 -4 15 -10 15 -5 0 -10 -7 -10 -15z">
			</path>
			<path id="pPswDkRZK" d="M390 411 c0 -11 -5 -21 -11 -23 -5 -2 -13 -22 -16 -46 -5 -38 -8 -42 -34 -42 -26 0 -29 -3 -29 -34 0 -30 4 -35 28 -39 25 -4 25 -4 -5 -6 -30 -1 -33 -4 -34 -33 -1 -18 -3 -25 -6 -15 -3 12 -14 17 -38 17 -25 0 -34 -5 -39 -22 -10 -39 -7 -78 7 -78 9 0 11 -12 9 -40 l-4 -40 42 0 c39 0 42 2 38 24 -4 18 -1 22 13 19 14 -4 19 4 25 43 12 81 54 99 54 23 0 -38 1 -39 34 -39 l34 0 7 74 c5 50 3 86 -5 111 -11 33 -10 39 4 47 18 10 23 78 6 78 -5 0 -10 9 -10 20 0 16 -7 20 -35 20 -28 0 -35 -4 -35 -19z m32 -187 c4 -30 2 -33 -8 -20 -6 10 -10 26 -7 36 7 28 10 25 15 -16z">
			</path>
			<path id="pf5OrRep1" d="M850 385 c0 -9 -10 -15 -27 -16 l-28 -1 25 -8 c14 -4 33 -8 44 -9 15 -1 16 2 6 14 -9 10 -9 15 -1 15 6 0 11 5 11 10 0 6 -7 10 -15 10 -8 0 -15 -7 -15 -15z">
			</path>
			<path id="pgOzWgTnm" d="M1100 321 c-11 -16 -17 -18 -34 -9 -29 16 -102 20 -88 6 6 -6 19 -12 29 -13 31 -2 93 -29 93 -39 0 -5 3 -6 7 -3 3 4 14 0 24 -9 23 -21 74 -11 65 12 -3 9 -6 22 -6 29 0 12 -51 45 -69 45 -4 0 -13 -9 -21 -19z">
			</path>
			<path id="p128Asvt1K" d="M1053 205 c0 -44 2 -61 4 -37 2 23 2 59 0 80 -2 20 -4 1 -4 -43z">
			</path>
			<path id="pYHm9rjWk" d="M957 264 c-3 -3 -3 -12 -1 -18 3 -8 -4 -12 -18 -12 -21 1 -23 -4 -26 -56 -2 -32 1 -58 7 -58 5 0 7 -25 4 -60 l-6 -60 55 0 55 0 -1 35 c-1 24 -5 34 -13 30 -17 -6 -43 4 -43 17 0 7 5 6 14 -1 10 -8 16 -8 23 1 13 17 14 56 2 63 -5 4 -9 0 -9 -8 0 -28 -28 -27 -33 1 -3 15 -1 28 4 30 5 2 6 15 3 28 -5 18 -2 24 11 24 9 0 14 -4 11 -9 -3 -4 1 -17 9 -27 14 -18 14 -18 15 4 0 23 -52 86 -63 76z">
			</path>
			<path id="ptSjuzzLX" d="M520 175 c0 -33 2 -35 35 -35 33 0 35 2 35 35 0 33 -2 35 -35 35 -33 0 -35 -2 -35 -35z">
			</path>
			<path id="pdySDgodF" d="M1222 124 c-1 -24 1 -44 6 -44 10 0 13 78 3 84 -3 2 -7 -16 -9 -40z">
			</path>
			<path id="pI8yVMg1a" d="M120 105 c0 -33 2 -35 35 -35 33 0 35 2 35 35 0 33 -2 35 -35 35 -33 0 -35 -2 -35 -35z">
			</path>
			<path id="prb2jfDxR" d="M7 53 c-4 -3 -7 -17 -7 -30 0 -21 4 -23 50 -23 49 0 50 1 50 30 0 29 -2 30 -43 30 -24 0 -47 -3 -50 -7z">
			</path>
			<path id="pLhLtBu6f" d="M1220 30 c0 -21 5 -30 16 -30 11 0 14 5 10 16 -3 9 -6 22 -6 30 0 8 -4 14 -10 14 -5 0 -10 -13 -10 -30z">
			</path>
		</g>
	</g>
	<g id="l5kOnFYDQ8YimWtbK9Er6FM" fill="rgb(113,131,160)" style="transform: none;">
		<g style="transform: none;">
			<path id="p5QwXytmc" d="M634 1272 c3 -5 1 -12 -6 -14 -8 -3 -6 -7 5 -11 20 -7 24 17 5 29 -6 4 -8 3 -4 -4z">
			</path>
			<path id="p16mWWV830" d="M559 1247 c-12 -10 -13 -16 -4 -34 9 -17 14 -20 23 -11 9 9 12 1 12 -34 0 -32 -5 -48 -16 -52 -10 -4 -13 -13 -9 -26 4 -11 1 -36 -5 -56 -10 -30 -9 -38 5 -54 9 -10 14 -24 10 -29 -3 -7 3 -11 15 -11 12 0 19 -4 15 -10 -3 -5 3 -18 14 -29 20 -20 20 -33 1 -110 -11 -46 -5 -68 11 -38 6 9 28 20 50 23 32 5 39 10 34 23 -12 30 -10 35 23 46 43 15 56 30 47 52 -4 10 -9 29 -11 42 -2 13 -8 29 -13 34 -19 19 -12 36 17 39 l27 4 -27 12 c-16 6 -28 16 -28 21 0 6 -11 27 -25 47 -14 20 -25 46 -25 58 0 17 -2 18 -10 6 -8 -13 -10 -12 -10 3 0 10 -5 15 -10 12 -6 -3 -13 1 -16 9 -3 9 -10 13 -15 10 -5 -3 -12 3 -15 13 -16 49 -16 49 -24 28 -7 -16 -9 -17 -9 -3 -1 23 -13 29 -32 15z">
			</path>
			<path id="pOPmsCz3" d="M1145 839 c-4 -5 -3 -19 0 -31 7 -19 5 -20 -24 -15 -27 6 -31 4 -31 -16 0 -27 10 -41 33 -50 12 -5 17 -1 17 12 0 14 6 17 27 13 24 -4 25 -3 20 19 -4 13 -7 34 -7 45 0 23 -25 40 -35 23z">
			</path>
			<path id="pO8AdkLmt" d="M620 701 c0 -12 6 -21 16 -21 9 0 14 7 12 17 -5 25 -28 28 -28 4z">
			</path>
			<path id="pWixV3fgy" d="M1000 681 c0 -5 8 -12 18 -14 16 -4 16 -5 -1 -6 -33 -2 -16 -44 28 -68 50 -27 65 -29 36 -4 l-22 19 23 5 23 4 -22 8 c-33 11 -28 25 10 26 l32 1 -29 12 c-20 9 -25 15 -15 19 8 3 -7 6 -33 6 -27 1 -48 -3 -48 -8z">
			</path>
			<path id="pLeO9xsoZ" d="M1115 600 c-3 -5 -4 -10 -1 -10 2 0 11 -3 20 -6 11 -4 16 -1 16 10 0 18 -25 22 -35 6z">
			</path>
			<path id="pmM4vpXrn" d="M850 200 c0 -27 -2 -30 -25 -24 -24 6 -25 5 -25 -50 0 -43 -3 -56 -15 -56 -8 0 -15 -7 -15 -15 0 -8 -7 -15 -15 -15 -8 0 -15 -9 -15 -20 0 -18 7 -20 85 -20 69 0 85 3 85 15 0 8 7 15 15 15 8 0 15 5 15 11 0 5 4 8 8 5 4 -2 9 11 10 30 2 23 -2 34 -11 34 -9 0 -12 10 -9 35 3 23 -1 40 -12 50 -15 15 -16 14 -16 -9 0 -35 -20 -44 -21 -9 0 25 -1 26 -9 8 -7 -17 -9 -15 -9 13 -1 40 -21 43 -21 2z m49 -118 c15 -12 14 -13 -2 -8 -12 4 -20 -1 -25 -13 -6 -16 -9 -17 -20 -5 -11 12 -10 14 3 14 8 0 14 3 14 8 -1 4 0 18 1 32 2 21 3 22 7 5 3 -11 13 -26 22 -33z">
			</path>
		</g>
	</g>
	<g id="l1A1lWs6Rw9kooifTrO2Yip" fill="rgb(167,147,117)" style="transform: none;">
		<g style="transform: none;">
			<path id="prpr9ulEG" d="M635 1270 c3 -5 0 -10 -7 -10 -7 0 -2 -7 11 -16 17 -12 25 -14 34 -5 9 9 9 14 -2 20 -11 7 -11 9 0 14 8 3 1 6 -14 6 -16 1 -26 -3 -22 -9z">
			</path>
			<path id="p1CCGlHoVB" d="M10 1231 c-13 -25 -13 -118 0 -126 5 -3 10 -21 10 -40 0 -19 4 -45 10 -59 6 -17 6 -27 -2 -32 -6 -4 -8 -27 -5 -60 4 -42 2 -54 -8 -54 -18 0 -21 -265 -4 -286 9 -10 9 -14 0 -14 -16 0 -15 -167 2 -173 9 -4 9 -6 0 -6 -7 -1 -13 -12 -13 -26 0 -22 4 -25 35 -25 31 0 75 30 75 51 0 8 26 18 45 19 13 0 17 -48 4 -55 -5 -4 -9 -1 -9 6 0 10 -3 10 -12 0 -10 -11 -10 -14 0 -18 18 -7 16 -73 -3 -73 -7 0 -18 7 -23 16 -8 13 -65 33 -99 34 -7 0 -13 -9 -13 -20 0 -11 7 -20 15 -20 19 0 19 -14 0 -30 -27 -22 -18 -43 15 -38 28 4 30 3 30 -29 0 -32 1 -33 40 -33 29 0 40 -4 40 -15 0 -9 9 -15 25 -15 24 0 25 -3 25 -55 l0 -55 105 0 105 0 6 40 c6 36 9 40 36 40 21 0 31 6 35 20 3 11 12 20 19 20 9 0 14 12 14 35 0 24 -5 35 -15 35 -9 0 -15 9 -15 23 0 12 -3 32 -6 45 -5 16 -2 22 10 22 9 0 16 -6 16 -13 0 -6 15 -19 33 -27 29 -13 30 -15 10 -18 -19 -3 -23 -10 -23 -38 0 -33 1 -34 40 -34 37 0 40 2 40 29 0 28 2 29 65 36 36 3 65 11 65 16 0 5 11 9 25 9 14 0 25 5 25 11 0 9 -23 10 -82 6 -55 -4 -78 -3 -68 3 8 5 35 10 60 10 54 0 90 9 90 22 0 5 -31 6 -75 2 -54 -5 -75 -4 -75 5 0 6 6 14 14 17 8 3 12 12 9 20 -3 8 0 14 6 14 6 0 11 -7 11 -15 0 -9 10 -15 26 -15 21 0 25 3 19 18 -4 9 -10 26 -12 38 -6 29 -35 45 -54 30 -27 -20 -47 -60 -54 -109 -7 -45 -8 -47 -22 -27 -8 11 -18 18 -22 16 -3 -3 -7 4 -7 15 0 19 1 19 14 2 11 -15 14 -16 22 -3 12 18 13 33 2 26 -9 -5 -8 41 3 73 3 11 2 21 -3 21 -5 0 -12 -9 -15 -20 -6 -22 -14 -24 -37 -10 -11 7 -12 12 -4 20 7 7 8 24 4 43 -5 25 -2 37 13 55 20 21 20 22 1 22 -17 0 -16 3 6 20 14 11 19 20 11 20 -9 0 -11 8 -7 25 4 17 2 24 -6 23 -6 -2 -14 5 -16 16 -2 10 0 16 5 13 5 -3 8 7 7 21 -1 15 -3 33 -3 40 -1 6 -8 12 -17 12 -13 0 -14 3 -4 15 6 8 9 23 5 35 -5 17 -15 20 -56 20 -27 0 -49 5 -49 10 0 6 -7 10 -15 10 -10 0 -15 10 -15 30 0 23 5 30 19 30 29 0 51 11 51 25 0 7 6 15 14 18 15 6 11 47 -5 47 -5 0 -9 5 -9 10 0 6 6 10 14 10 9 0 14 13 14 42 1 33 -5 46 -30 70 -20 18 -37 26 -48 23 -10 -3 -21 -1 -25 5 -9 15 -25 2 -25 -21 0 -11 -6 -19 -12 -18 -38 5 -48 -2 -48 -30 0 -16 -7 -34 -15 -41 -8 -7 -15 -16 -15 -21 0 -12 33 2 43 18 9 15 47 18 47 4 0 -5 -9 -7 -19 -4 -15 4 -20 0 -18 -14 1 -15 7 -19 26 -16 15 2 20 0 14 -3 -7 -3 -13 -12 -13 -20 0 -10 -5 -12 -12 -7 -7 4 -25 8 -41 9 -45 3 -56 19 -50 74 4 40 2 49 -9 45 -7 -3 -22 1 -33 9 -17 13 -17 15 -4 16 9 0 19 6 22 13 6 17 -9 44 -19 34 -4 -4 -16 12 -26 35 -20 45 -39 40 -30 -8 5 -27 -9 -32 -28 -9 -9 11 -22 14 -41 10 -22 -5 -29 -2 -35 17 -4 13 -7 31 -5 41 3 23 -16 22 -29 -2z m70 -85 c0 -21 -21 -31 -30 -15 -5 7 -6 17 -4 21 9 14 34 9 34 -6z m370 -106 c0 -11 -4 -20 -10 -20 -5 0 -10 9 -10 20 0 11 5 20 10 20 6 0 10 -9 10 -20z m-97 -133 c-5 -8 -8 -7 -11 1 -2 7 -8 10 -13 6 -5 -3 -9 5 -9 17 0 21 1 22 20 4 11 -10 17 -22 13 -28z m-203 -17 c0 -5 14 -10 30 -10 17 0 30 -2 30 -4 0 -2 3 -11 6 -20 5 -13 -2 -16 -40 -16 -25 0 -46 5 -46 10 0 6 -7 10 -15 10 -15 0 -21 21 -8 33 10 11 43 8 43 -3z m138 -115 c-8 -18 -19 -25 -40 -25 -15 0 -28 -5 -28 -12 0 -6 -7 -4 -18 5 -10 10 -32 17 -49 17 -37 0 -63 9 -63 21 0 5 9 9 20 9 11 0 20 -4 20 -10 0 -5 25 -10 55 -10 42 0 55 3 55 15 0 10 10 15 30 15 28 0 29 -1 18 -25z m102 -19 c0 -6 14 -17 31 -25 40 -17 47 -38 20 -57 -23 -16 -19 -39 5 -30 8 3 14 1 14 -4 0 -6 -7 -10 -16 -10 -10 0 -14 -5 -10 -16 3 -8 2 -12 -4 -9 -6 3 -10 -1 -10 -11 0 -11 6 -15 20 -11 26 7 25 -7 -2 -33 -21 -20 -49 -27 -47 -12 3 20 -2 32 -16 32 -8 0 -15 4 -15 10 0 5 -7 7 -16 3 -13 -5 -15 -2 -9 15 5 19 2 22 -22 22 -15 0 -55 9 -87 19 -53 16 -56 19 -32 25 17 4 35 1 53 -11 17 -12 24 -13 19 -4 -9 13 -9 13 52 -4 18 -5 22 -2 22 16 0 12 -7 31 -16 41 -15 16 -15 18 0 24 9 3 13 11 9 17 -3 5 2 16 11 23 20 14 46 8 46 -10z m-290 -66 c0 -5 -7 -10 -15 -10 -8 0 -15 5 -15 10 0 6 7 10 15 10 8 0 15 -4 15 -10z m169 -151 c10 -16 10 -23 1 -29 -6 -4 -10 -22 -8 -41 3 -30 7 -34 36 -37 29 -3 32 -7 32 -35 0 -18 3 -42 6 -53 4 -16 0 -23 -15 -27 -16 -4 -21 -13 -21 -39 0 -19 5 -39 11 -45 7 -7 -2 -12 -32 -17 -23 -4 -44 -4 -47 -2 -2 3 -1 30 3 61 5 45 10 55 26 55 15 0 19 7 19 35 0 28 -4 35 -19 35 -15 0 -20 9 -22 43 -5 54 0 117 9 117 4 0 13 -10 21 -21z m-115 -34 c3 -8 12 -15 21 -15 16 0 20 -15 6 -24 -15 -10 -40 5 -34 20 3 9 -1 14 -12 14 -9 0 -13 5 -10 10 9 15 22 12 29 -5z m242 -33 c-11 -10 -15 4 -8 28 l7 25 3 -23 c2 -13 1 -26 -2 -30z m-306 -32 c14 -4 19 -8 13 -9 -7 -1 -13 -8 -13 -16 0 -8 -4 -15 -9 -15 -5 0 -16 -3 -25 -6 -13 -5 -16 1 -16 25 0 32 6 35 50 21z m332 -212 c-3 -14 -2 -19 6 -14 8 5 12 0 12 -13 0 -27 -16 -27 -31 0 -9 17 -13 19 -20 8 -5 -8 -9 -10 -9 -6 0 15 32 57 40 52 5 -3 6 -15 2 -27z m-232 -33 c0 -8 -7 -15 -16 -15 -14 0 -14 3 -4 15 7 8 14 15 16 15 2 0 4 -7 4 -15z">
			</path>
			<path id="pX0RXpX3z" d="M353 707 c2 -7 14 -14 26 -15 28 -4 20 13 -9 21 -14 3 -20 1 -17 -6z">
			</path>
			<path id="pmnhN2wKP" d="M367 604 c3 -8 11 -14 19 -14 21 0 17 17 -5 23 -14 3 -18 1 -14 -9z">
			</path>
			<path id="prXcBtj8Y" d="M1093 909 c-25 -9 -28 -16 -13 -39 8 -13 10 -13 10 2 0 19 18 34 28 23 3 -3 0 -10 -8 -15 -13 -8 -12 -10 3 -10 11 0 15 -4 11 -12 -5 -8 -2 -9 10 -5 10 4 23 7 29 7 7 0 6 4 -3 10 -10 6 -11 10 -2 10 6 0 12 5 12 10 0 6 -8 10 -18 10 -10 0 -22 4 -27 9 -6 5 -20 5 -32 0z">
			</path>
			<path id="pkdtzNTc0" d="M1144 839 c-9 -16 2 -22 21 -11 15 8 16 10 1 15 -8 3 -18 2 -22 -4z">
			</path>
			<path id="p4fKwt8g4" d="M720 675 c-4 -33 -10 -49 -20 -55 -8 -5 -10 -19 -5 -38 3 -17 3 -38 -2 -47 -5 -8 -7 -31 -5 -50 3 -26 9 -35 23 -35 19 0 25 11 12 23 -8 9 -11 57 -3 57 3 0 17 -11 31 -24 28 -26 112 -45 122 -28 10 15 -16 41 -51 51 -22 7 -30 6 -26 0 4 -7 -3 -9 -17 -7 -14 2 -23 9 -21 17 2 9 -4 12 -17 8 -12 -3 -22 1 -25 10 -9 23 -7 30 4 13 8 -12 10 -10 10 11 0 14 5 30 11 36 8 8 6 19 -5 39 -8 16 -16 25 -16 19z">
			</path>
			<path id="pAcTZGOo8" d="M700 420 c0 -5 7 -10 15 -10 8 0 15 5 15 10 0 6 -7 10 -15 10 -8 0 -15 -4 -15 -10z">
			</path>
			<path id="p18cg2mv5v" d="M1095 320 c-5 -16 -10 -18 -26 -9 -11 6 -25 8 -32 6 -7 -2 4 -12 23 -22 19 -10 38 -23 42 -29 4 -6 8 -7 8 -3 0 5 10 1 22 -7 28 -20 68 -21 68 -2 0 8 -4 17 -10 21 -5 3 -7 12 -4 20 4 9 -3 16 -20 21 -14 3 -26 10 -26 15 0 18 -39 8 -45 -11z">
			</path>
			<path id="pVA8PcQJR" d="M790 205 l0 -56 35 3 c34 2 35 3 33 43 -1 36 -2 37 -5 8 -4 -28 -21 -47 -24 -25 -4 41 -3 62 3 62 4 0 8 5 8 10 0 6 -11 10 -25 10 -24 0 -25 -3 -25 -55z">
			</path>
			<path id="prse63ng5" d="M962 215 c0 -27 3 -39 5 -25 3 14 9 28 14 31 5 3 2 14 -6 25 -13 17 -14 15 -13 -31z">
			</path>
			<path id="pvhBPBBfk" d="M915 213 c-4 -17 -2 -29 4 -31 7 -2 11 -33 11 -73 0 -89 10 -109 55 -109 40 0 43 5 36 45 -4 20 -9 26 -14 17 -6 -9 -14 -9 -27 -2 -15 8 -18 17 -14 39 4 17 1 33 -9 42 -8 9 -14 32 -14 54 1 46 -18 58 -28 18z m63 -191 c-13 -6 -39 19 -32 30 3 5 14 1 24 -9 9 -10 13 -20 8 -21z">
			</path>
			<path id="p18XnYEfrm" d="M28 113 c-31 -5 -37 -29 -15 -64 10 -17 10 -23 0 -26 -36 -13 -3 -23 77 -23 83 0 90 1 90 20 0 15 -7 20 -24 20 -21 0 -25 5 -28 38 -3 35 -5 37 -38 38 -19 1 -47 -1 -62 -3z">
			</path>
			<path id="pbNVZbRro" d="M987 113 c-3 -5 -2 -15 2 -22 5 -7 11 -9 14 -4 3 5 2 15 -2 22 -5 7 -11 9 -14 4z">
			</path>
		</g>
	</g>
	<g id="l3vRwsOVQkrilG4OVdF2YiS" fill="rgb(163,165,165)" style="transform: none;">
		<g style="transform: none;">
			<path id="pVOgjFnIT" d="M557 1241 c-17 -6 -18 -8 -3 -21 13 -10 20 -10 28 -2 16 16 -2 32 -25 23z">
			</path>
			<path id="pOwLEPAh5" d="M601 1221 c-19 -12 -6 -41 19 -41 11 0 20 -7 20 -15 0 -8 5 -15 10 -15 6 0 10 6 10 13 0 17 -15 39 -26 37 -4 -1 -11 5 -14 14 -3 10 -10 12 -19 7z">
			</path>
			<path id="p1FOk0m6zi" d="M426 902 c-21 -34 -17 -162 4 -162 6 0 9 5 8 11 -2 6 3 14 10 16 6 3 12 -2 12 -11 0 -9 7 -16 15 -16 8 0 15 5 15 11 0 5 4 7 10 4 5 -3 12 6 16 20 7 28 -19 57 -43 48 -7 -3 -13 -1 -13 5 0 5 7 12 15 16 8 3 15 10 15 16 0 6 -4 8 -10 5 -5 -3 -12 6 -16 20 -6 24 -27 34 -38 17z">
			</path>
			<path id="p4FMsXNih" d="M319 873 c0 -5 -2 -23 -5 -40 -4 -32 -3 -33 31 -33 34 0 35 1 35 40 0 38 -2 40 -30 40 -16 0 -30 -3 -31 -7z">
			</path>
			<path id="p1GdjepcED" d="M1146 843 c-3 -3 -3 -16 0 -28 6 -26 -12 -43 -29 -26 -21 21 -38 13 -31 -14 4 -15 2 -25 -5 -25 -27 0 -7 -18 24 -22 26 -3 34 -1 31 9 -8 19 8 23 44 13 42 -12 47 -7 21 19 -12 12 -20 24 -20 29 5 32 -18 62 -35 45z">
			</path>
			<path id="p16nGrZd64" d="M1040 721 c0 -5 -11 -8 -25 -5 -18 3 -25 0 -25 -11 0 -9 -6 -15 -13 -13 -7 2 -14 -1 -15 -7 -1 -5 9 -11 22 -12 14 -1 42 -6 63 -12 48 -14 83 -14 83 -1 0 6 -15 10 -32 11 -18 0 -27 3 -20 6 17 7 15 40 -4 47 -22 9 -34 7 -34 -3z">
			</path>
			<path id="p1EHVbFGXX" d="M990 642 c0 -20 48 -52 77 -51 10 0 13 3 5 6 -6 2 -10 9 -6 14 7 12 -36 48 -58 49 -11 0 -18 -7 -18 -18z">
			</path>
			<path id="pvcO1uSDB" d="M318 613 c-10 -2 -18 -8 -18 -13 0 -4 9 -6 20 -3 11 3 20 9 20 14 0 5 -1 8 -2 8 -2 -1 -11 -3 -20 -6z">
			</path>
			<path id="p1H5xeKrVb" d="M1122 598 c3 -7 12 -14 21 -16 12 -2 15 1 11 12 -7 19 -38 22 -32 4z">
			</path>
			<path id="pQcDlQ9Gw" d="M1030 315 c0 -2 14 -10 30 -19 17 -8 30 -11 30 -6 0 4 -13 13 -30 19 -16 5 -30 8 -30 6z">
			</path>
			<path id="pcHPF529C" d="M800 235 c0 -14 6 -25 12 -25 7 0 2 -7 -10 -16 -18 -12 -22 -24 -20 -52 3 -35 5 -37 41 -40 40 -3 47 4 20 24 -15 10 -16 15 -5 25 10 11 12 10 13 -2 1 -24 18 23 18 54 1 15 -3 27 -9 27 -5 0 -10 -14 -10 -31 0 -20 -4 -29 -12 -27 -15 5 -22 68 -8 68 6 0 10 5 10 10 0 6 -9 10 -20 10 -15 0 -20 -7 -20 -25z">
			</path>
			<path id="pLtKpO6iH" d="M963 236 c0 -17 4 -23 14 -19 11 4 11 8 1 22 -7 9 -13 17 -14 19 -1 2 -1 -8 -1 -22z">
			</path>
			<path id="pf75PagKw" d="M1052 220 c0 -19 2 -27 5 -17 2 9 2 25 0 35 -3 9 -5 1 -5 -18z">
			</path>
			<path id="pcjXVlQu9" d="M915 205 c-11 -64 -17 -74 -25 -40 l-8 30 -1 -32 c0 -18 4 -33 9 -33 6 0 10 -6 10 -14 0 -8 7 -22 16 -30 8 -9 11 -16 5 -16 -6 0 -11 -16 -11 -35 0 -35 1 -35 43 -35 l42 0 -29 23 c-22 18 -26 26 -16 32 9 6 11 4 5 -5 -5 -8 -4 -11 2 -7 14 8 8 98 -7 107 -7 4 -10 12 -8 16 3 5 0 25 -7 44 l-12 35 -8 -40z">
			</path>
			<path id="pDdh5mmRg" d="M510 40 c0 -39 1 -40 35 -40 34 0 35 1 35 40 0 39 -1 40 -35 40 -34 0 -35 -1 -35 -40z">
			</path>
			<path id="pYvpYcT8x" d="M1227 36 c-4 -15 -6 -31 -2 -34 10 -10 16 6 13 35 l-3 28 -8 -29z">
			</path>
		</g>
	</g>
	<g id="l1cQh5AI4vTiXrs20mbDvbc" fill="rgb(195,174,137)" style="transform: none;">
		<g style="transform: none;">
			<path id="pcifHTK38" d="M640 1261 c0 -27 15 -34 30 -16 10 12 9 15 -6 16 -18 0 -18 1 1 9 19 8 19 9 -2 9 -16 1 -23 -5 -23 -18z">
			</path>
			<path id="pnqCd3KjE" d="M20 1235 c0 -8 -5 -15 -10 -15 -6 0 -10 -86 -9 -239 l1 -239 51 -6 c29 -4 64 -7 78 -6 23 0 36 -7 86 -50 7 -5 19 -10 28 -10 9 0 31 -6 50 -14 19 -8 37 -11 40 -6 6 9 -13 50 -27 60 -4 3 1 20 12 38 21 35 70 46 70 17 0 -9 16 -23 35 -32 35 -17 50 -37 39 -54 -3 -5 -9 -7 -14 -4 -4 3 -13 -2 -20 -10 -10 -13 -8 -15 13 -15 33 0 57 -9 57 -22 0 -6 -14 -8 -30 -6 -19 3 -29 1 -27 -6 2 -6 12 -10 21 -8 16 3 16 1 2 -26 -8 -16 -13 -32 -10 -35 12 -12 -8 -46 -29 -49 -12 -2 -21 -9 -19 -16 1 -7 -9 -12 -25 -12 -22 0 -25 2 -13 10 10 7 11 12 4 18 -6 4 -13 15 -17 24 -4 13 1 18 21 21 l27 4 -27 2 c-32 1 -60 -36 -37 -49 18 -12 -16 -44 -38 -35 -13 5 -14 8 -5 14 7 4 14 19 16 32 1 14 5 30 9 36 4 6 -2 13 -13 16 -26 7 -25 21 3 35 22 11 22 11 1 11 -12 1 -37 7 -56 15 -19 8 -48 17 -64 20 -16 2 -29 5 -29 6 0 1 -13 4 -29 6 -16 2 -41 7 -55 13 -14 5 -38 12 -53 15 -26 6 -28 4 -28 -29 0 -31 3 -35 25 -35 13 0 44 -10 67 -22 52 -26 53 -27 46 -33 -2 -3 -18 1 -34 9 -16 8 -42 18 -58 22 -26 6 -29 5 -23 -15 3 -13 1 -21 -8 -21 -10 0 -13 -26 -14 -109 0 -107 0 -109 22 -104 18 4 19 3 7 -6 -12 -9 -10 -11 13 -11 28 0 37 14 15 23 -7 3 -4 6 8 6 30 1 71 42 79 79 6 30 5 32 -21 32 -27 0 -27 1 -8 15 19 14 19 14 -1 15 -19 1 -19 2 2 12 17 8 27 6 47 -8 28 -21 34 -44 11 -44 -15 0 -22 -50 -8 -64 4 -3 8 -15 10 -26 3 -18 -7 -25 -29 -21 -7 1 -2 -45 8 -76 2 -9 -7 -13 -26 -13 -16 0 -32 -5 -35 -10 -4 -7 -13 -7 -26 0 -15 8 -25 7 -43 -7 -22 -16 -24 -25 -24 -101 -1 -77 0 -81 18 -72 25 13 51 14 30 0 -8 -5 -11 -12 -8 -15 4 -4 -5 -18 -20 -30 l-27 -24 220 2 220 2 3 32 c3 30 5 31 63 38 38 4 59 12 59 20 0 7 8 15 19 18 13 3 20 17 25 49 l7 45 52 7 c90 10 87 12 87 -44 l0 -50 36 0 c27 0 35 4 31 14 -3 8 -3 17 1 21 3 3 7 29 7 57 l1 51 -86 -6 c-47 -4 -96 -9 -109 -13 -18 -5 -23 -4 -19 7 3 10 33 17 96 24 124 14 129 27 7 19 -93 -7 -99 -6 -86 9 7 10 28 17 47 17 34 0 52 14 34 25 -5 3 -10 18 -11 33 0 15 -3 21 -6 15 -6 -16 -24 -17 -20 -2 5 26 -23 17 -47 -14 -20 -26 -27 -48 -28 -86 l-2 -50 -21 19 c-12 11 -26 20 -32 20 -6 0 -9 9 -6 20 3 11 9 18 13 15 12 -7 22 11 25 43 1 15 5 36 10 47 6 18 5 18 -12 -2 -12 -16 -25 -21 -39 -17 -20 5 -21 9 -12 41 7 25 6 38 -1 43 -8 4 -4 16 11 35 12 16 17 26 10 21 -6 -4 -12 -3 -12 3 0 5 5 13 10 16 20 12 10 35 -15 35 -14 0 -25 5 -25 10 0 6 9 10 20 10 17 0 19 3 10 19 -13 25 -13 68 0 76 15 9 12 25 -5 25 -12 0 -13 4 -4 18 13 20 -4 76 -22 70 -8 -3 -25 -27 -46 -67 -1 -1 -6 0 -12 3 -7 5 -7 13 1 26 10 15 10 22 0 32 -6 6 -12 20 -12 29 0 10 -6 20 -12 22 -8 3 -7 6 4 6 9 1 20 10 23 21 3 11 13 27 22 35 14 14 14 18 -2 35 -17 19 -13 40 8 40 10 0 14 34 9 77 -3 18 -70 54 -76 40 -3 -9 -8 -8 -15 3 -10 13 -12 13 -21 0 -5 -8 -10 -21 -10 -28 0 -8 -8 -10 -26 -6 -20 5 -25 4 -20 -5 4 -7 2 -18 -4 -26 -10 -12 -7 -13 18 -6 26 8 31 6 36 -12 9 -35 7 -38 -21 -31 -22 4 -25 3 -13 -5 8 -6 23 -11 33 -11 9 0 17 -5 17 -11 0 -5 4 -8 9 -5 10 7 21 -16 21 -45 0 -12 -5 -16 -14 -13 -8 3 -12 12 -9 21 5 13 -11 32 -28 33 -4 0 -5 -16 -2 -35 4 -30 2 -35 -15 -35 -11 0 -23 -8 -25 -17 -4 -16 -5 -16 -6 -2 0 9 -8 20 -17 23 -14 5 -15 4 -4 -9 10 -12 10 -15 -4 -15 -9 0 -16 5 -16 10 0 6 -7 10 -15 10 -8 0 -15 5 -15 10 0 6 -8 10 -17 11 -12 0 -8 4 10 11 32 12 33 17 6 47 -17 18 -18 25 -9 36 7 8 9 15 4 15 -4 0 -3 5 4 12 18 18 15 28 -10 37 -15 5 -26 4 -30 -3 -5 -6 -8 -2 -8 12 0 13 6 22 15 22 8 0 15 9 15 20 0 11 -6 20 -14 20 -8 0 -20 16 -27 35 -7 19 -17 35 -22 35 -5 0 -6 -16 -3 -35 7 -38 -3 -45 -28 -20 -20 20 -25 19 -19 -5 3 -11 10 -20 17 -20 6 0 3 -5 -7 -11 -13 -8 -22 -7 -32 1 -8 6 -16 7 -19 2 -3 -6 1 -13 10 -16 9 -4 14 -9 11 -13 -4 -3 -1 -13 6 -21 10 -13 9 -15 -5 -9 -10 3 -18 2 -18 -3 0 -6 -4 -10 -8 -10 -4 0 -9 17 -9 37 -1 26 -8 43 -23 55 l-22 18 22 0 c19 0 21 4 15 23 -4 12 -7 32 -7 45 0 12 -4 22 -9 22 -5 0 -9 -7 -9 -15z m112 -147 c-9 -9 -15 -9 -24 0 -9 9 -7 12 12 12 19 0 21 -3 12 -12z m-17 -48 c18 -8 17 -9 -7 -9 -16 -1 -28 -5 -28 -11 0 -5 -4 -10 -10 -10 -14 0 -12 27 3 33 16 7 19 7 42 -3z m85 -51 c0 -11 -3 -11 -24 -3 -23 9 -20 23 4 17 11 -3 20 -9 20 -14z m-116 -53 c-7 -17 -34 -23 -34 -6 0 9 32 31 38 26 1 -2 0 -11 -4 -20z m-25 -132 c3 -16 1 -17 -13 -5 -19 16 -21 34 -3 29 6 -3 14 -13 16 -24z m211 -50 c0 -2 -19 -4 -42 -3 -31 0 -37 3 -24 8 18 7 66 3 66 -5z m-76 -208 c9 -14 12 -27 7 -30 -5 -3 -12 1 -15 10 -3 8 -10 12 -16 9 -5 -3 -10 3 -10 14 0 28 14 26 34 -3z m250 -110 c-6 -16 -24 -23 -24 -8 0 10 22 33 27 28 2 -2 1 -11 -3 -20z m-334 4 c0 -5 -3 -10 -7 -10 -5 0 -18 -3 -30 -6 -17 -5 -23 -2 -23 10 0 11 9 16 30 16 17 0 30 -4 30 -10z m212 -42 c6 -44 -4 -98 -18 -98 -8 0 -14 -10 -14 -25 0 -14 -4 -25 -9 -25 -5 0 -11 -10 -13 -22 -2 -18 -10 -24 -40 -26 -31 -3 -37 0 -40 20 -2 13 -1 38 3 56 5 20 3 32 -4 32 -7 0 -6 5 2 13 11 10 14 10 18 0 3 -8 22 -13 44 -13 l39 0 0 55 c0 41 4 55 14 55 8 0 16 -10 18 -22z m116 -9 c-10 -17 -10 -23 0 -26 14 -5 16 -39 3 -48 -5 -3 -11 3 -13 12 -3 15 -5 14 -10 -4 -4 -16 -2 -23 8 -23 8 0 14 -5 14 -11 0 -5 -4 -7 -10 -4 -14 9 -12 -11 3 -43 19 -40 15 -126 -6 -130 -14 -3 -15 1 -7 22 8 21 7 24 -8 19 -14 -6 -15 -4 -4 9 17 22 5 50 -19 43 -20 -7 -27 9 -9 20 7 4 7 13 0 26 -7 13 -7 19 0 19 5 0 10 -5 10 -12 0 -9 3 -8 13 1 10 11 9 14 -1 18 -6 3 -9 9 -6 14 3 6 -2 21 -10 34 -13 19 -13 25 -3 25 7 0 21 14 30 30 10 17 22 30 28 30 5 0 4 -10 -3 -21z m113 -52 c-16 -16 -25 -1 -10 16 8 8 16 11 18 5 2 -5 -2 -15 -8 -21z m-411 -112 c-7 -9 -15 -13 -18 -10 -3 2 1 11 8 20 7 9 15 13 18 10 3 -2 -1 -11 -8 -20z m118 -70 c-3 -14 -1 -25 3 -25 5 0 9 -4 9 -9 0 -4 -12 -6 -27 -3 -16 3 -22 7 -15 9 6 3 12 13 12 23 0 10 -6 21 -12 23 -7 3 -2 6 11 6 20 1 23 -3 19 -24z m52 -86 c0 -11 -5 -19 -12 -17 -17 6 -19 38 -2 38 8 0 14 -9 14 -21z">
			</path>
			<path id="pIqcCGUeX" d="M290 927 l-25 -10 23 -5 c26 -4 36 1 31 16 -3 6 -14 5 -29 -1z">
			</path>
			<path id="p4qQm5u5X" d="M1102 903 c9 -2 19 -15 22 -29 4 -14 11 -22 16 -19 6 4 8 11 5 16 -4 5 1 9 10 9 9 0 14 4 10 10 -3 5 -12 7 -20 3 -8 -3 -15 0 -15 6 0 6 -10 10 -22 10 -16 -1 -18 -3 -6 -6z">
			</path>
			<path id="prDaVlpoA" d="M120 695 c14 -8 32 -14 40 -14 8 0 0 6 -19 14 -42 19 -54 19 -21 0z">
			</path>
			<path id="plsCOTy5O" d="M715 630 c-8 -13 4 -32 16 -25 12 8 12 35 0 35 -6 0 -13 -4 -16 -10z">
			</path>
			<path id="pMEcJuMCj" d="M690 603 c0 -17 6 -23 23 -23 16 0 18 3 8 9 -7 5 -17 15 -22 22 -6 10 -9 8 -9 -8z">
			</path>
			<path id="pDqEBrfFq" d="M696 528 c-7 -49 -3 -68 16 -68 7 0 7 5 -1 14 -7 8 -8 16 -2 18 5 1 6 20 2 43 l-7 40 -8 -47z">
			</path>
			<path id="pfMgbX0lS" d="M740 529 c6 -11 18 -23 26 -26 7 -3 11 -9 8 -15 -3 -5 0 -8 7 -7 8 1 27 -1 43 -6 26 -7 45 4 46 27 0 11 -43 22 -82 19 -29 -2 -38 1 -38 13 0 9 -5 16 -10 16 -7 0 -7 -7 0 -21z">
			</path>
			<path id="p5aywEjl8" d="M1110 326 c0 -9 7 -16 16 -16 17 0 14 22 -4 28 -7 2 -12 -3 -12 -12z">
			</path>
			<path id="pn0ag21Q6" d="M1034 312 c4 -7 11 -12 16 -12 5 0 32 -13 60 -30 28 -16 59 -30 69 -30 17 0 17 3 7 35 -16 45 -22 51 -41 35 -15 -12 -64 -10 -99 5 -14 6 -17 5 -12 -3z">
			</path>
			<path id="p1G7xhyf7y" d="M964 237 c0 -15 6 -23 14 -20 10 4 10 9 0 22 -7 9 -13 17 -14 19 -1 2 -1 -8 0 -21z">
			</path>
			<path id="pXPHwWYGJ" d="M921 201 c-1 -34 2 -42 11 -33 8 8 8 20 1 44 l-11 33 -1 -44z">
			</path>
			<path id="p1FG4bBz5Z" d="M931 108 c-1 -16 4 -28 10 -28 5 0 7 -5 3 -12 -4 -7 -3 -8 4 -4 8 5 9 13 3 24 -4 9 -11 24 -14 32 -3 9 -6 3 -6 -12z">
			</path>
			<path id="pQkRZ1KJu" d="M990 48 c-24 -10 -24 -10 -5 -18 22 -9 13 -13 -22 -10 -13 1 -23 -3 -23 -9 0 -6 18 -11 40 -11 38 0 40 2 40 30 0 17 -1 30 -2 29 -2 0 -14 -5 -28 -11z">
			</path>
		</g>
	</g>
	<g id="l4u3z2IfxVy4gzw33fqJfUH" fill="rgb(159,187,213)" style="transform: none;">
		<g style="transform: none;">
			<path id="pXFTBdMZ5" d="M818 169 c-2 -7 -18 -12 -36 -11 -31 1 -32 -1 -32 -39 0 -24 5 -39 13 -40 6 0 2 -4 -10 -9 -17 -7 -23 -18 -23 -38 0 -29 1 -29 59 -30 59 -1 60 0 58 26 -1 15 -6 30 -12 35 -6 4 -3 11 8 18 25 14 21 34 -9 48 -22 10 -24 14 -14 26 7 9 10 18 7 21 -2 3 -7 0 -9 -7z">
			</path>
			<path id="p15y9K5Vwi" d="M881 138 c-1 -43 1 -48 25 -54 22 -6 24 -8 10 -16 -9 -5 -20 -7 -25 -4 -5 3 -11 -10 -13 -29 l-4 -35 48 0 c26 0 48 5 48 10 0 6 -7 10 -15 10 -16 0 -21 35 -6 45 6 3 4 20 -5 42 -9 20 -13 44 -11 55 7 25 -5 23 -22 -4 l-15 -23 -7 25 c-5 19 -7 14 -8 -22z">
			</path>
			<path id="p80Yg9t2w" d="M580 80 c-8 -5 -25 -10 -37 -10 -20 0 -23 -5 -23 -35 l0 -35 54 0 c77 0 86 5 86 51 0 37 -1 39 -32 39 -18 0 -40 -5 -48 -10z">
			</path>
		</g>
	</g>
	<g id="l6Kh3Lbkp7U6v1yeAZKXBKk" fill="rgb(220,200,164)" style="transform: none;">
		<g style="transform: none;">
			<path id="p8zZkN5pl" d="M12 1220 c-21 -34 -15 -60 13 -60 29 0 30 6 12 48 -12 29 -13 30 -25 12z">
			</path>
			<path id="plakoVH9Z" d="M150 1197 c0 -3 4 -17 10 -32 9 -24 7 -27 -26 -41 -20 -8 -43 -13 -51 -10 -8 3 -11 1 -8 -4 3 -6 19 -10 35 -10 23 0 28 -4 27 -20 -1 -12 -8 -20 -19 -20 -26 0 -22 -20 5 -21 21 -1 21 -1 -3 -8 -18 -5 -24 -13 -22 -29 3 -22 -13 -32 -20 -12 -2 5 -19 7 -39 4 l-36 -6 -2 -119 c-2 -109 -1 -119 16 -119 13 0 19 9 20 30 1 17 -2 30 -7 30 -15 0 -12 16 5 33 8 8 11 17 8 21 -4 3 1 6 9 6 22 0 32 -30 10 -31 -9 -1 -1 -5 18 -9 32 -7 33 -8 13 -15 -13 -4 -23 -14 -23 -21 0 -8 -4 -14 -10 -14 -5 0 -10 -7 -10 -15 0 -20 31 -32 105 -41 33 -4 52 -9 42 -12 -14 -3 -9 -8 20 -23 20 -10 45 -19 55 -19 9 0 20 -4 23 -10 6 -10 45 -14 45 -5 0 12 -24 55 -32 55 -11 0 -6 23 7 32 6 5 4 8 -5 8 -8 0 -2 7 14 15 32 17 82 20 91 5 3 -5 -2 -10 -12 -10 -11 -1 -2 -10 25 -26 45 -28 58 -64 22 -64 -31 0 -23 -17 10 -22 17 -3 30 0 30 6 0 6 8 -4 17 -22 21 -43 29 -34 11 14 -10 29 -10 38 0 41 6 3 12 11 12 18 0 7 -6 15 -12 18 -10 3 -10 7 -1 17 8 9 8 20 1 41 -13 38 -25 37 -45 -6 -9 -19 -20 -35 -24 -35 -14 0 -21 22 -11 32 5 5 8 27 5 48 -3 22 -1 40 6 44 6 4 11 18 11 32 0 13 5 24 12 24 6 0 4 7 -5 18 -21 23 -22 52 -1 52 11 0 14 6 9 21 -5 13 -2 25 6 29 9 6 4 17 -19 40 -38 38 -57 35 -57 -8 0 -18 -6 -34 -12 -37 -10 -3 -12 5 -7 34 3 22 2 41 -4 45 -25 15 -24 -118 1 -137 23 -17 37 -61 26 -78 -6 -10 -9 -10 -9 -1 0 6 -9 12 -21 12 -11 0 -17 -4 -14 -10 3 -5 1 -10 -4 -10 -6 0 -11 -8 -12 -17 0 -11 -3 -13 -6 -5 -7 17 -23 5 -23 -19 0 -19 15 -27 22 -11 2 5 16 1 32 -9 l29 -17 -34 3 c-19 2 -42 6 -51 10 -11 4 -18 3 -18 -5 0 -7 -8 -9 -22 -5 -31 10 -42 21 -33 34 4 8 11 6 21 -4 18 -17 34 -20 34 -5 0 15 -40 51 -49 45 -5 -2 -12 2 -15 11 -4 11 -14 15 -31 12 -19 -4 -25 -1 -25 13 0 11 -5 19 -11 19 -5 0 -7 5 -4 10 10 16 22 12 28 -10 8 -30 47 -27 47 5 0 20 -7 26 -40 35 -54 14 -62 32 -14 28 24 -2 39 1 39 9 0 6 3 15 8 19 4 4 7 12 7 19 0 15 -40 17 -41 2 0 -7 -4 -1 -10 11 -10 27 -4 42 17 42 8 0 14 7 14 16 0 10 -6 14 -15 10 -8 -3 -15 -1 -15 5 0 6 -9 22 -20 36 -11 14 -20 23 -20 20z m-43 -265 c-17 -2 -25 -8 -21 -14 5 -8 1 -9 -10 -5 -10 4 -21 7 -26 7 -19 0 -16 26 3 28 12 0 23 6 25 11 2 6 15 3 30 -7 l26 -17 -27 -3z m64 -62 c5 0 9 -8 9 -17 0 -11 -3 -14 -8 -7 -4 6 -16 16 -27 23 -17 10 -17 12 -2 7 10 -3 23 -6 28 -6z m33 -59 c18 -7 18 -8 -4 -14 -16 -4 -30 -1 -40 8 -13 13 -12 15 5 14 11 0 29 -4 39 -8z m294 -87 c0 -19 -2 -34 -4 -31 -8 8 -11 67 -4 67 5 0 8 -16 8 -36z">
			</path>
			<path id="p1Cl2uy26Z" d="M1 1078 c-1 -71 0 -73 24 -73 14 0 27 7 29 15 3 13 0 75 -4 75 -1 0 -3 9 -5 19 -3 18 -22 35 -37 36 -3 0 -6 -33 -7 -72z">
			</path>
			<path id="p9weNxTHZ" d="M360 940 c0 -11 7 -20 15 -20 8 0 15 6 15 14 0 8 -7 16 -15 20 -10 4 -15 -1 -15 -14z">
			</path>
			<path id="pSjqJ2lXn" d="M0 672 c0 -35 11 -52 34 -52 12 0 31 -6 42 -14 11 -8 36 -17 56 -21 38 -7 78 -37 78 -59 0 -25 -13 -24 -41 5 -57 58 -45 22 15 -46 42 -47 45 -65 11 -65 -25 0 -34 -14 -16 -24 11 -7 3 -46 -14 -66 -7 -8 -12 -34 -10 -57 1 -27 -3 -47 -11 -54 -8 -6 -14 -20 -14 -30 0 -15 -7 -19 -32 -18 -31 1 -32 1 -8 9 21 7 22 8 5 10 -15 1 -16 3 -5 7 8 4 22 16 31 27 21 26 3 42 -20 19 -10 -11 -16 -12 -19 -4 -5 15 -43 13 -64 -3 -14 -10 -18 -28 -18 -70 0 -54 1 -56 28 -57 l27 -1 -27 -10 c-16 -5 -28 -16 -28 -24 0 -11 4 -12 19 -4 29 15 41 12 34 -7 -5 -12 -3 -14 7 -8 9 5 11 4 6 -3 -4 -7 -13 -12 -21 -12 -16 0 -28 -27 -14 -35 10 -7 96 2 111 11 4 3 8 1 8 -5 0 -6 39 -9 100 -8 86 2 100 4 98 18 -2 9 3 23 11 32 15 19 36 23 25 5 -5 -8 -2 -9 9 -5 10 3 17 2 17 -4 0 -5 -7 -12 -15 -15 -8 -4 -15 -12 -15 -20 0 -11 18 -14 80 -14 78 0 80 1 80 24 0 19 4 23 20 19 17 -5 20 0 20 26 0 18 6 34 14 37 8 3 16 27 20 55 7 48 8 49 41 49 24 0 35 5 38 18 3 9 5 0 6 -21 1 -26 6 -40 19 -44 9 -4 24 -14 32 -23 19 -20 89 -27 72 -7 -9 10 -8 17 0 25 9 9 9 15 1 23 -7 7 -8 21 -2 42 5 17 6 33 4 36 -3 3 -58 -1 -122 -8 -109 -12 -118 -12 -130 5 -7 10 -13 14 -13 10 0 -5 -7 -3 -15 4 -20 16 -15 42 9 55 11 6 20 21 21 35 1 14 5 34 9 45 5 15 3 14 -5 -2 -7 -13 -20 -23 -31 -23 -10 0 -18 -5 -18 -11 0 -6 7 -9 15 -5 10 4 15 -1 15 -14 0 -26 -38 -28 -40 -2 -3 64 -2 89 5 106 6 14 5 17 -4 11 -18 -10 -4 54 15 76 22 25 17 38 -12 33 -23 -4 -26 -2 -21 15 7 28 -20 35 -29 8 -4 -12 -8 -31 -10 -42 -4 -46 -16 -66 -35 -60 -13 4 -19 1 -19 -9 0 -9 -9 -16 -20 -16 -11 0 -20 -6 -20 -12 0 -9 -4 -8 -10 2 -8 13 -13 13 -31 2 -18 -11 -24 -11 -39 3 -23 21 -22 55 2 55 15 0 16 4 6 32 -9 26 -8 33 5 43 14 10 11 12 -18 13 -30 1 -35 -2 -36 -21 -1 -15 -3 -17 -6 -6 -2 10 -14 20 -26 23 -31 8 -39 7 -32 -4 3 -5 -2 -10 -13 -10 -20 0 -26 27 -9 48 7 8 5 12 -6 12 -8 0 -18 -6 -20 -12 -4 -8 -6 -7 -6 3 -1 10 -13 19 -28 22 -16 3 -36 9 -45 12 -13 5 -18 2 -18 -10 0 -9 -6 -15 -12 -12 -7 2 -13 9 -13 15 0 5 -3 14 -7 18 -5 4 -8 -2 -8 -14z m460 -227 c-7 -8 -10 -22 -6 -30 3 -8 2 -15 -3 -15 -5 0 -11 -9 -14 -20 -3 -11 0 -18 7 -17 12 2 12 -5 1 -43 -7 -22 -6 -23 9 -11 10 9 16 10 16 2 0 -6 -3 -11 -7 -11 -5 0 -16 -7 -27 -15 -17 -13 -17 -15 -2 -37 9 -12 16 -35 16 -50 0 -24 8 -32 31 -30 3 0 10 -8 17 -19 10 -16 9 -19 -3 -19 -8 0 -15 5 -15 12 0 6 -13 0 -28 -15 -29 -28 -42 -27 -42 5 0 10 -4 18 -10 18 -5 0 -10 -7 -10 -15 0 -9 -8 -19 -17 -22 -15 -6 -14 -7 3 -14 19 -7 19 -7 -1 -15 -11 -4 -23 -12 -27 -18 -5 -7 -8 -4 -8 7 0 11 -5 15 -11 11 -7 -4 -10 1 -7 12 1 9 6 17 10 16 5 -1 18 7 30 18 13 10 31 25 40 32 15 12 15 15 3 32 -14 19 -21 11 -16 -16 0 -5 -8 -8 -19 -8 -11 0 -20 7 -20 15 0 8 5 15 10 15 6 0 10 7 10 16 0 8 -4 12 -10 9 -20 -12 -10 23 14 48 13 14 21 29 17 32 -3 4 -6 12 -6 18 0 5 -6 12 -14 15 -8 3 -11 0 -7 -7 4 -6 2 -11 -3 -11 -13 0 -14 10 -3 28 5 7 16 10 25 6 12 -4 17 -1 17 14 0 11 7 25 15 32 13 10 13 15 3 21 -9 6 -6 13 11 28 13 12 20 21 15 21 -5 0 -2 5 6 10 19 12 27 -15 10 -35z m-90 -59 c0 -26 -6 -18 -14 19 -5 22 -4 26 4 15 5 -8 10 -24 10 -34z m-110 -31 c0 -8 -7 -15 -15 -15 -16 0 -20 12 -8 23 11 12 23 8 23 -8z m98 -74 c-7 -12 -20 -21 -28 -21 -10 0 -7 7 10 24 29 28 37 26 18 -3z m440 -86 c1 -19 -2 -37 -7 -39 -6 -4 -9 60 -2 72 5 9 8 -3 9 -33z m-488 -9 c0 -26 -5 -36 -20 -41 -11 -3 -20 -12 -20 -19 0 -7 -14 -12 -39 -11 -26 0 -37 4 -34 13 3 7 -4 12 -18 12 -22 0 -22 0 -3 15 22 17 38 20 29 5 -3 -6 4 -10 17 -9 13 0 17 3 11 6 -20 8 -15 23 7 23 11 0 23 -7 27 -16 6 -15 8 -15 20 2 7 10 13 26 13 36 0 10 2 18 5 18 3 0 5 -15 5 -34z m263 4 c-3 -11 -11 -20 -18 -20 -8 0 -11 8 -8 20 3 11 11 20 18 20 8 0 11 -8 8 -20z m-233 -5 c0 -8 -4 -15 -10 -15 -5 0 -10 7 -10 15 0 8 5 15 10 15 6 0 10 -7 10 -15z m-170 -85 c0 -15 -6 -20 -27 -19 -16 0 -22 3 -15 6 6 2 12 11 12 19 0 8 7 14 15 14 8 0 15 -9 15 -20z m103 -1 c22 -6 37 -16 37 -25 0 -8 5 -12 10 -9 6 3 10 1 10 -4 0 -6 -11 -11 -25 -11 -13 0 -29 -8 -34 -17 -9 -16 -12 -16 -21 -3 -15 23 -12 32 10 25 14 -5 20 -2 20 10 0 9 -4 14 -8 11 -4 -2 -19 4 -32 15 -28 21 -21 23 33 8z m-196 -75 c-16 -8 -34 -13 -40 -11 -7 3 -1 9 13 15 38 16 59 13 27 -4z">
			</path>
			<path id="pRZUogwou" d="M186 631 c-6 -9 54 -24 63 -16 7 8 -20 25 -41 25 -9 0 -19 -4 -22 -9z">
			</path>
			<path id="p1C4kqeVkh" d="M721 631 c-8 -5 -10 -14 -6 -21 6 -9 10 -8 17 4 12 21 7 28 -11 17z">
			</path>
			<path id="pNdrdUpD1" d="M30 575 c0 -8 -7 -18 -15 -21 -28 -11 -17 -34 18 -35 l32 -1 -32 -9 c-45 -13 -42 -23 5 -14 26 5 34 3 27 -4 -6 -6 -23 -12 -38 -13 -21 -2 -27 -8 -27 -25 0 -13 5 -23 10 -23 6 0 10 -7 10 -15 0 -8 -4 -15 -10 -15 -5 0 -10 -11 -10 -25 0 -14 5 -25 12 -25 22 0 83 25 91 37 4 7 15 13 22 13 9 0 15 10 15 25 0 14 1 28 3 33 1 4 -8 8 -20 10 -25 4 -30 17 -10 25 6 3 3 6 -8 7 -18 1 -18 2 5 15 14 8 20 14 13 15 -6 0 -9 9 -6 20 4 15 -1 21 -23 25 -16 4 -37 9 -46 12 -12 3 -18 -1 -18 -12z">
			</path>
			<path id="ptG31Czc5" d="M692 493 c2 -14 10 -28 18 -30 13 -4 13 -3 0 7 -11 8 -12 13 -3 16 13 6 6 34 -9 34 -5 0 -8 -12 -6 -27z">
			</path>
			<path id="pybkrFT72" d="M820 509 c0 -6 -7 -8 -16 -5 -10 4 -14 1 -12 -6 7 -20 56 -28 63 -10 3 8 0 19 -7 24 -18 11 -28 10 -28 -3z">
			</path>
			<path id="pebNeeDfh" d="M660 400 c0 -5 -7 -10 -15 -10 -20 0 -38 -37 -41 -85 l-3 -41 92 9 c51 5 97 13 102 18 9 9 -95 5 -151 -6 -27 -6 -37 4 -23 22 6 7 29 13 50 13 22 0 39 4 39 8 0 16 -37 52 -45 44 -4 -4 -4 3 -1 16 4 12 5 22 2 22 -3 0 -6 -4 -6 -10z">
			</path>
			<path id="pEdtV3J6L" d="M1133 298 c-40 -13 -41 -19 -5 -36 48 -24 52 -24 52 -8 0 9 -5 16 -12 16 -9 0 -9 3 0 12 13 13 16 29 5 27 -5 -1 -23 -6 -40 -11z">
			</path>
			<path id="pDNQ3ztPs" d="M921 122 c-1 -20 3 -31 9 -27 6 3 10 1 10 -6 0 -7 2 -10 6 -7 3 3 -2 21 -10 39 l-14 34 -1 -33z">
			</path>
			<path id="pkmhcVOJp" d="M997 43 c-3 -5 -1 -17 4 -28 8 -22 9 -21 13 13 3 21 -8 30 -17 15z">
			</path>
			<path id="p1HKujGFAZ" d="M933 17 c5 -15 37 -22 37 -9 0 5 -9 12 -21 15 -13 3 -19 1 -16 -6z">
			</path>
		</g>
	</g>
	<g id="l4g2zXIYCxdW7bYi8E7dAMg" fill="rgb(237,220,188)" style="transform: none;">
		<g style="transform: none;">
			<path id="p3G30WjqM" d="M0 1200 c0 -5 8 -10 18 -11 14 0 14 -2 -3 -9 -18 -8 -17 -9 8 -9 25 -1 27 1 17 19 -11 21 -40 28 -40 10z">
			</path>
			<path id="p1FC8ZXFXh" d="M0 1135 c0 -8 4 -15 9 -15 5 0 17 -3 27 -7 23 -9 10 13 -17 27 -15 9 -19 7 -19 -5z">
			</path>
			<path id="pDbCAz8gN" d="M133 1120 c-27 -11 -30 -22 -5 -18 11 2 16 -3 14 -14 -2 -10 2 -18 8 -18 5 0 10 -4 10 -10 0 -5 -7 -10 -16 -10 -8 0 -13 -4 -9 -9 3 -5 -4 -12 -15 -16 -23 -7 -25 -16 -8 -33 10 -10 10 -15 -1 -21 -10 -7 -8 -12 10 -25 30 -21 57 -22 40 -2 -10 12 -6 14 29 10 32 -4 41 -2 38 8 -3 7 -13 13 -24 13 -10 0 -28 5 -39 12 -16 10 -18 14 -7 25 10 10 16 10 32 0 17 -11 21 -10 27 5 4 10 11 21 17 25 19 13 -5 22 -25 10 -15 -10 -20 -10 -23 0 -2 7 -7 21 -10 30 -3 10 -1 20 4 23 16 10 11 25 -7 24 -10 0 -28 -4 -40 -9z">
			</path>
			<path id="pJluTlPS4" d="M367 1086 c-3 -22 -2 -46 2 -54 6 -11 10 -5 13 21 6 52 -7 81 -15 33z">
			</path>
			<path id="plH1KkyAq" d="M7 1096 c-4 -9 4 -13 25 -14 33 -1 33 0 1 16 -16 9 -22 9 -26 -2z">
			</path>
			<path id="p1FuKZ1efh" d="M409 1093 c-1 -10 -2 -25 -3 -33 -1 -8 -4 -20 -8 -25 -9 -15 2 -65 16 -65 6 0 4 -5 -4 -10 -8 -5 -10 -10 -3 -10 12 0 12 -54 0 -66 -4 -4 -7 -2 -7 4 0 7 -6 12 -14 12 -21 0 -38 -27 -31 -50 7 -22 30 -27 38 -7 3 6 6 0 6 -14 1 -23 -2 -25 -29 -21 -18 3 -30 0 -30 -7 0 -13 10 -17 63 -25 35 -5 37 -3 37 24 0 16 3 31 8 34 4 2 6 33 5 68 -5 101 -3 152 7 158 12 7 0 24 -27 39 -20 10 -23 9 -24 -6z">
			</path>
			<path id="p15frWennh" d="M2 1035 c-1 -21 3 -25 24 -25 21 0 25 4 22 23 -5 33 -43 36 -46 2z">
			</path>
			<path id="panWqNr1b" d="M7 984 c-8 -9 18 -34 36 -34 23 0 28 12 9 26 -19 15 -35 17 -45 8z">
			</path>
			<path id="pJAyTVbBe" d="M0 850 c0 -81 3 -100 15 -100 8 0 12 6 9 14 -3 8 0 17 6 21 8 5 7 12 -4 24 -13 14 -13 19 2 39 16 20 22 22 57 13 22 -5 32 -9 21 -10 -15 -1 -16 -4 -6 -16 13 -16 6 -35 -15 -35 -16 0 -16 -51 0 -62 18 -14 55 -9 55 7 0 19 4 19 39 0 16 -8 31 -22 33 -32 3 -10 17 -24 31 -32 23 -12 31 -12 52 -1 29 15 34 34 7 26 -16 -5 -18 -2 -14 23 3 21 12 33 31 39 l26 10 -27 10 c-14 6 -29 16 -33 21 -3 6 -11 11 -17 11 -7 0 -7 -5 1 -14 9 -10 8 -15 -3 -19 -10 -4 -17 3 -21 24 -4 16 -12 29 -18 29 -8 0 -7 4 1 12 16 16 15 45 0 51 -7 2 -33 3 -57 2 -23 -1 -38 1 -31 5 8 5 7 9 -4 13 -11 4 -16 1 -16 -10 0 -21 -56 -10 -85 17 -12 11 -24 20 -28 20 -4 0 -7 -45 -7 -100z m168 24 c26 -7 30 -34 5 -34 -11 0 -4 -7 16 -17 33 -16 33 -17 10 -25 -33 -12 -49 -3 -49 30 0 15 -5 33 -12 40 -13 13 -5 15 30 6z">
			</path>
			<path id="pEKYpdmXT" d="M250 882 c0 -17 38 -57 46 -49 4 4 -4 19 -19 33 -15 14 -27 21 -27 16z">
			</path>
			<path id="p1uIXzM1y" d="M481 783 c-8 -16 -17 -36 -22 -45 -5 -11 -5 -18 0 -18 5 0 11 -11 13 -25 4 -19 1 -25 -13 -25 -10 0 -21 -4 -24 -10 -4 -6 7 -10 26 -10 l32 0 -7 55 c-5 42 -3 55 7 55 9 0 12 -11 9 -35 -2 -20 0 -35 6 -35 17 0 26 22 12 30 -7 4 -9 13 -6 19 9 14 -2 71 -13 71 -4 0 -13 -12 -20 -27z">
			</path>
			<path id="ppoYzH8VO" d="M1 663 c-1 -12 4 -25 9 -28 12 -7 12 2 0 30 -8 19 -9 19 -9 -2z">
			</path>
			<path id="prq9TqHz4" d="M302 668 c3 -7 13 -15 24 -17 16 -3 17 -1 5 13 -16 19 -34 21 -29 4z">
			</path>
			<path id="pECKegOoW" d="M50 647 c0 -20 9 -30 43 -46 24 -12 53 -21 65 -21 11 0 28 -10 36 -21 11 -16 21 -20 39 -15 28 7 62 52 47 61 -6 3 -15 -6 -20 -20 -8 -21 -13 -25 -23 -17 -7 6 -32 14 -55 18 -23 3 -40 10 -37 14 3 4 -2 13 -10 20 -8 7 -15 19 -15 26 0 8 -9 14 -19 14 -11 0 -26 3 -35 6 -12 5 -16 0 -16 -19z">
			</path>
			<path id="pEJ3fMX8i" d="M195 629 c-16 -6 -16 -8 -3 -8 9 -1 23 -4 32 -7 9 -3 16 -2 16 4 0 15 -22 20 -45 11z">
			</path>
			<path id="pO9ZtR27R" d="M482 587 c-13 -31 -9 -47 14 -47 8 0 14 -5 14 -11 0 -5 -10 -9 -22 -7 -21 3 -23 0 -20 -38 2 -23 -1 -45 -6 -48 -14 -9 -2 -46 14 -46 19 0 18 -10 -3 -25 -18 -13 -27 -45 -12 -45 5 0 9 -11 9 -25 0 -30 24 -43 45 -25 16 13 21 50 6 50 -5 0 -11 11 -13 25 -3 14 -2 25 2 25 3 0 5 14 2 30 -2 17 1 37 8 45 11 13 10 14 -5 8 -15 -5 -17 -3 -11 13 4 10 10 32 13 47 3 16 12 31 19 34 8 3 14 10 14 15 0 7 -4 7 -13 0 -17 -15 -34 -2 -39 28 l-4 25 -12 -28z">
			</path>
			<path id="p13EqjNntM" d="M30 571 c0 -10 -7 -22 -16 -25 -26 -10 -10 -18 20 -10 14 3 23 10 20 15 -6 11 9 12 20 2 3 -4 -4 -13 -16 -20 -15 -8 -18 -13 -8 -13 8 -1 -1 -8 -20 -15 l-35 -14 40 6 c41 6 110 32 88 33 -7 0 -13 6 -13 14 0 7 -8 16 -17 20 -10 3 -28 10 -40 16 -19 8 -23 6 -23 -9z">
			</path>
			<path id="psjn7iTMI" d="M275 549 c-3 -8 -15 -16 -27 -16 -28 -2 -40 -16 -33 -36 10 -24 31 -27 32 -5 1 10 12 27 25 38 13 10 20 22 16 26 -4 4 -10 0 -13 -7z">
			</path>
			<path id="p4Jlp67Y9" d="M690 500 c0 -19 3 -21 12 -12 9 9 9 15 0 24 -9 9 -12 7 -12 -12z">
			</path>
			<path id="p1G0dZ3YHz" d="M61 481 c-13 -10 -32 -16 -42 -14 -32 9 -23 -31 12 -51 24 -14 28 -20 18 -32 -7 -8 -20 -12 -30 -9 -13 4 -19 1 -19 -9 0 -19 8 -20 60 -4 22 7 40 19 40 25 0 7 10 13 21 13 18 0 20 2 8 16 -10 13 -10 17 0 24 19 11 3 32 -19 25 -10 -3 -20 0 -23 9 -4 9 1 17 11 19 13 4 13 5 2 6 -8 0 -26 -8 -39 -18z">
			</path>
			<path id="pqTx9iu0O" d="M417 476 c-4 -10 -5 -21 -2 -24 9 -9 17 6 13 25 -3 17 -4 17 -11 -1z">
			</path>
			<path id="plle2XoBs" d="M229 449 c-8 -5 -6 -9 7 -12 18 -5 18 -5 -1 -11 -20 -7 -55 -57 -55 -78 0 -6 -8 -17 -17 -25 -17 -14 -17 -14 2 -8 31 11 40 11 45 0 3 -5 -7 -11 -22 -13 -29 -3 -40 -22 -13 -22 8 0 15 -6 15 -14 0 -8 7 -17 16 -20 8 -3 13 -2 10 3 -5 8 17 23 37 25 4 1 12 8 17 16 5 8 12 12 15 8 14 -14 -57 -63 -98 -68 -32 -4 -43 -10 -45 -25 -5 -27 -15 -36 -46 -39 -29 -4 -36 17 -10 32 15 8 15 10 0 15 -9 4 -16 14 -16 24 0 13 -3 14 -12 5 -7 -7 -23 -13 -37 -13 -17 -1 -20 -3 -8 -6 9 -2 17 -8 17 -13 0 -5 8 -10 18 -13 13 -3 10 -6 -10 -11 -27 -8 -45 -37 -33 -56 9 -15 44 -12 61 5 9 8 27 15 42 14 26 -1 26 -1 -8 -16 -33 -14 -50 -29 -50 -45 0 -16 21 -7 42 17 12 14 28 25 35 25 7 0 13 6 13 14 0 9 7 12 20 9 11 -3 20 -1 20 5 0 5 12 13 28 16 15 4 35 9 44 12 10 3 18 -2 21 -13 3 -10 5 -3 6 15 0 17 5 32 10 32 5 0 18 3 28 7 16 6 16 5 4 -10 -8 -10 -11 -20 -7 -24 3 -3 6 -1 6 6 0 7 9 9 25 5 16 -4 25 -2 25 6 0 6 -4 8 -10 5 -5 -3 -10 3 -10 14 0 12 -7 21 -15 21 -19 0 -19 14 1 35 9 8 13 22 10 30 -3 8 -1 17 5 20 5 4 7 10 4 15 -3 4 3 10 14 13 23 6 34 44 15 51 -11 4 -13 -1 -8 -19 5 -19 2 -25 -11 -25 -10 0 -15 5 -12 13 3 8 1 20 -3 28 -6 8 -4 16 3 21 9 5 9 10 0 19 -15 15 -47 -7 -39 -28 3 -7 1 -13 -4 -13 -6 0 -10 11 -10 23 0 20 -5 24 -30 24 -16 0 -35 -4 -41 -8z m67 -51 c4 -6 -2 -19 -14 -29 -12 -9 -22 -24 -22 -33 0 -21 -19 -30 -26 -12 -3 9 -12 16 -20 16 -21 0 -17 20 4 20 9 1 28 7 42 15 24 14 24 14 3 15 -12 0 -25 5 -28 10 -4 6 6 10 24 10 16 0 33 -5 37 -12z m-26 -173 c0 -8 -9 -15 -19 -15 -11 0 -23 -4 -26 -10 -3 -5 -14 -10 -23 -9 -14 0 -14 2 -2 6 8 3 26 14 39 24 29 23 31 23 31 4z m-90 -25 c0 -11 -7 -20 -15 -20 -13 0 -14 4 -5 20 6 11 13 20 15 20 3 0 5 -9 5 -20z">
			</path>
			<path id="p10Xz8A1Fr" d="M629 378 c-1 -7 0 -17 1 -23 1 -5 3 -16 3 -22 1 -20 67 -17 67 2 0 22 -27 30 -47 14 -15 -13 -16 -11 -9 14 4 16 2 27 -4 27 -5 0 -11 -6 -11 -12z">
			</path>
			<path id="p2nOpcbN6" d="M444 285 c-4 -8 -10 -12 -15 -9 -5 3 -6 -2 -3 -10 3 -9 12 -16 19 -16 8 0 11 -13 9 -39 -2 -26 1 -41 10 -44 8 -3 13 1 12 11 0 9 12 22 28 30 l28 14 -39 27 c-22 14 -38 32 -36 39 7 17 -6 15 -13 -3z">
			</path>
			<path id="p5TzLUZTe" d="M703 291 c-34 -3 -65 -10 -70 -15 -10 -10 136 3 157 15 17 10 13 10 -87 0z">
			</path>
			<path id="p137nac0ip" d="M663 247 c-61 -6 -94 -14 -97 -23 -3 -8 1 -14 11 -14 12 0 13 -3 3 -15 -6 -8 -9 -23 -6 -33 4 -13 1 -22 -9 -26 -14 -5 -19 9 -18 52 1 15 -13 16 -22 2 -5 -8 -11 -8 -19 -1 -7 6 -16 8 -19 5 -9 -9 24 -55 34 -48 5 3 9 1 9 -5 0 -5 3 -16 6 -25 8 -22 -8 -20 -36 4 -28 24 -25 24 -47 6 -47 -39 -67 -57 -56 -52 17 9 27 -12 14 -28 -17 -20 -2 -46 25 -46 26 0 28 7 25 77 -1 23 3 44 9 48 10 6 11 3 15 -55 1 -19 3 -43 4 -52 1 -13 10 -18 31 -18 28 0 30 2 24 28 -7 25 -6 26 10 13 15 -13 19 -13 27 0 5 8 9 20 9 27 0 6 5 12 10 12 6 0 10 16 10 35 0 35 0 35 44 35 24 0 46 -4 48 -8 2 -5 31 -12 66 -15 49 -5 61 -4 55 6 -4 6 -6 20 -5 30 2 9 -2 17 -7 17 -6 0 -11 -7 -11 -15 0 -18 -16 -20 -22 -2 -2 6 -4 23 -4 37 1 19 6 25 21 23 14 -1 21 4 22 17 2 23 -4 23 -154 7z">
			</path>
			<path id="p1EM5TUs3s" d="M100 235 c-7 -8 -8 -15 -2 -15 5 0 15 7 22 15 7 8 8 15 2 15 -5 0 -15 -7 -22 -15z">
			</path>
			<path id="p173J2H39D" d="M918 181 c-5 -32 5 -42 16 -15 3 9 2 23 -3 31 -6 12 -9 8 -13 -16z">
			</path>
			<path id="pUHS3705l" d="M374 165 c-10 -8 -14 -15 -8 -15 5 0 19 7 30 15 10 8 14 15 8 15 -5 0 -19 -7 -30 -15z">
			</path>
			<path id="p17uSv0xPu" d="M331 149 c-1 -23 -33 -49 -38 -31 -6 16 -20 15 -20 -2 0 -17 46 -14 57 4 4 6 10 11 14 10 4 -1 12 1 19 3 7 3 5 6 -5 6 -9 1 -19 7 -21 14 -4 7 -6 6 -6 -4z">
			</path>
			<path id="p1DhgFtQ29" d="M197 106 c-17 -18 -17 -19 0 -33 16 -13 12 -14 -36 -9 -29 3 -50 2 -47 -2 4 -4 11 -7 14 -7 4 -1 17 -6 28 -13 12 -6 24 -8 28 -5 3 3 6 2 6 -4 0 -5 -10 -15 -22 -21 -19 -9 -10 -10 44 -9 38 1 68 5 68 10 0 6 -8 8 -52 11 -27 2 -31 14 -9 26 21 11 29 40 12 40 -5 0 -11 8 -13 17 -3 15 -4 15 -21 -1z">
			</path>
			<path id="pYvtw9MHI" d="M110 100 c-12 -8 -11 -10 8 -10 12 0 22 5 22 10 0 13 -11 13 -30 0z">
			</path>
			<path id="p1EnQnAHOJ" d="M340 60 c-14 -10 -23 -21 -20 -23 3 -3 18 6 33 19 33 28 23 32 -13 4z">
			</path>
			<path id="p13lrTpG2D" d="M930 20 c0 -15 21 -23 32 -12 6 6 2 11 -11 15 -12 3 -21 1 -21 -3z">
			</path>
		</g>
	</g>
	<g id="l1O6tb49ra7OY74V7Dw56FE" fill="rgb(197,228,240)" style="transform: none;">
		<g style="transform: none;">
			<path id="p4VJXvGAh" d="M911 155 c-7 -25 -18 -45 -25 -45 -6 0 -2 -7 8 -15 16 -12 22 -12 34 -2 13 10 14 8 8 -16 -6 -24 -5 -26 7 -15 12 11 12 18 0 47 -8 19 -12 42 -10 51 11 41 -10 35 -22 -5z">
			</path>
			<path id="p17NlKcLBE" d="M652 150 c-35 -9 -67 -21 -70 -26 -4 -5 -20 -15 -36 -22 -24 -11 -28 -17 -23 -42 4 -16 2 -32 -3 -35 -17 -11 -11 -25 10 -25 17 0 19 4 13 27 l-6 28 36 -28 c31 -24 44 -27 110 -27 65 0 75 2 80 19 3 11 17 22 35 26 28 6 30 8 22 37 -9 28 -8 30 15 25 14 -2 25 0 25 4 0 5 -6 9 -14 9 -8 0 -21 9 -29 20 -8 11 -16 17 -20 14 -3 -3 -12 -2 -19 2 -21 14 -58 12 -126 -6z">
			</path>
			<path id="p1HVps8m6u" d="M882 44 c3 -17 21 -21 26 -6 1 5 -4 12 -13 16 -11 4 -15 1 -13 -10z">
			</path>
			<path id="pB2IDmSbH" d="M786 15 c25 -19 44 -19 44 0 0 10 -10 15 -32 15 -30 0 -31 -1 -12 -15z">
			</path>
			<path id="pcQdGxSe1" d="M932 18 c5 -15 28 -23 28 -10 0 5 -7 13 -16 16 -10 4 -14 1 -12 -6z">
			</path>
		</g>
	</g>
	<g id="l5wqt76hGZTKr6lxmijNxLF" fill="rgb(248,238,216)" style="transform: none;">
		<g style="transform: none;">
			<path id="pZlP3ISW7" d="M0 1130 c0 -5 7 -10 15 -10 8 0 15 5 15 10 0 6 -7 10 -15 10 -8 0 -15 -4 -15 -10z">
			</path>
			<path id="p145feVkcf" d="M150 1120 c-12 -8 -11 -10 8 -10 12 0 22 5 22 10 0 13 -11 13 -30 0z">
			</path>
			<path id="pvdZOVuXk" d="M407 1080 c-3 -11 -1 -20 4 -20 5 0 9 -7 9 -15 0 -8 -7 -15 -16 -15 -13 0 -14 -3 -4 -15 6 -8 9 -19 5 -25 -3 -6 3 -10 14 -10 24 0 27 10 9 28 -9 9 -10 15 -2 20 19 12 28 54 13 63 -21 13 -26 11 -32 -11z">
			</path>
			<path id="pvJwsyRBa" d="M154 1035 c-4 -8 -12 -15 -20 -15 -8 0 -14 -7 -14 -15 0 -8 4 -15 9 -15 5 0 11 7 15 15 3 8 12 15 21 15 8 0 15 7 15 15 0 8 -5 15 -10 15 -6 0 -13 -7 -16 -15z">
			</path>
			<path id="p17NAhOr83" d="M417 940 c6 -22 11 -24 33 -10 17 10 14 15 -17 24 -18 6 -20 4 -16 -14z">
			</path>
			<path id="pJKLf2keM" d="M0 902 c0 -38 4 -52 14 -52 8 0 16 7 20 15 3 8 1 15 -4 15 -14 0 -13 27 1 32 6 2 1 12 -10 22 l-21 19 0 -51z">
			</path>
			<path id="pvqz1kg30" d="M422 898 c-5 -7 -12 -31 -14 -54 -3 -23 -8 -46 -12 -53 -4 -6 -3 -11 3 -11 5 0 17 -3 27 -7 14 -5 16 -1 12 25 -2 18 0 33 7 36 9 3 12 35 6 69 -2 11 -17 8 -29 -5z">
			</path>
			<path id="pxm8EpVIo" d="M113 883 c-4 -10 -14 -12 -30 -8 -16 4 -22 2 -18 -5 3 -5 18 -10 32 -10 21 0 23 -3 14 -14 -9 -11 -8 -15 4 -20 13 -5 13 -8 -5 -26 -27 -27 -25 -40 6 -40 14 0 23 4 19 10 -3 6 0 10 9 10 8 0 17 -6 19 -12 3 -8 6 -6 6 5 1 9 -3 17 -9 17 -5 0 -10 16 -10 35 0 22 -6 38 -15 41 -8 4 -13 10 -10 14 6 11 66 -6 75 -20 10 -16 41 0 38 19 -4 22 -117 26 -125 4z">
			</path>
			<path id="pi3eTG5KQ" d="M372 888 c-14 -14 -16 -58 -3 -58 13 0 25 20 29 48 3 24 -7 29 -26 10z">
			</path>
			<path id="pXwFEDdXV" d="M260 855 c0 -2 9 -9 20 -15 16 -9 18 -8 14 5 -5 13 -34 22 -34 10z">
			</path>
			<path id="pi12X0Umu" d="M190 830 c0 -4 8 -11 17 -14 14 -6 14 -8 -5 -22 -27 -19 -28 -40 -2 -54 11 -6 20 -20 20 -31 0 -15 5 -19 16 -15 8 3 13 2 10 -3 -11 -17 26 -21 47 -6 l21 15 -21 0 c-47 0 -53 9 -53 74 0 58 -1 61 -25 62 -14 1 -25 -2 -25 -6z">
			</path>
			<path id="p1BySOXsfz" d="M2 790 c-1 -22 2 -40 8 -40 5 0 7 7 3 16 -3 9 -1 19 5 23 7 4 6 12 -2 23 -11 15 -13 12 -14 -22z">
			</path>
			<path id="p1CKNzTEro" d="M342 798 c7 -19 38 -22 38 -4 0 10 -9 16 -21 16 -12 0 -19 -5 -17 -12z">
			</path>
			<path id="psoXj8qll" d="M270 773 c0 -11 6 -14 23 -9 12 3 25 6 30 6 4 0 7 3 7 8 0 4 -14 8 -30 9 -22 2 -30 -2 -30 -14z">
			</path>
			<path id="p11eHGVjCa" d="M480 771 c-12 -23 -14 -91 -2 -91 4 0 7 19 7 42 0 29 4 42 13 41 6 -2 12 4 12 12 0 21 -17 19 -30 -4z">
			</path>
			<path id="p1rmXyE10" d="M250 732 c0 -5 9 -12 21 -15 13 -3 19 -1 16 6 -5 15 -37 22 -37 9z">
			</path>
			<path id="p12KpCwqpY" d="M436 661 c-3 -5 6 -8 19 -8 14 0 25 3 25 8 0 5 -9 9 -19 9 -11 0 -22 -4 -25 -9z">
			</path>
			<path id="pB0pmpFnR" d="M90 605 c15 -18 34 -20 24 -3 -5 8 -2 9 9 5 10 -3 17 -2 17 3 0 6 -14 10 -31 10 -27 0 -30 -2 -19 -15z">
			</path>
			<path id="p1CiPnLCFu" d="M30 570 c0 -5 9 -10 21 -10 11 0 17 5 14 10 -3 6 -13 10 -21 10 -8 0 -14 -4 -14 -10z">
			</path>
			<path id="pPoVICr1y" d="M76 544 c-4 -11 -1 -14 11 -12 9 2 18 9 21 16 6 18 -25 15 -32 -4z">
			</path>
			<path id="pUP7vr8UF" d="M460 516 c0 -3 5 -17 10 -31 7 -18 7 -33 0 -46 -8 -14 -7 -19 1 -19 6 0 9 -6 6 -14 -3 -8 -1 -17 6 -19 9 -3 8 -9 -3 -22 -13 -16 -13 -18 0 -13 11 3 15 22 16 77 1 60 -2 73 -17 82 -11 5 -19 8 -19 5z">
			</path>
			<path id="pIRWHLq6Z" d="M59 473 c-1 -5 -1 -12 0 -16 1 -5 -6 -6 -16 -3 -10 3 -24 2 -31 -3 -9 -6 -3 -14 22 -32 20 -13 36 -27 36 -31 0 -11 -47 -21 -59 -13 -6 3 -11 -1 -11 -11 0 -12 5 -15 23 -9 12 4 34 9 49 12 15 3 25 9 22 14 -3 5 2 12 10 15 20 8 21 24 1 24 -21 0 -37 34 -23 48 9 9 8 12 -5 12 -9 0 -18 -3 -18 -7z">
			</path>
			<path id="p1E4fSil4m" d="M100 451 c0 -6 9 -9 20 -8 11 1 20 5 20 9 0 4 -9 8 -20 8 -11 0 -20 -4 -20 -9z">
			</path>
			<path id="p1CGCbEE3k" d="M316 404 c-3 -9 -4 -19 -1 -24 3 -4 -6 -11 -20 -14 -35 -9 -31 -32 8 -47 17 -7 37 -14 42 -17 6 -2 4 1 -4 6 -12 9 -12 13 -2 26 10 12 11 16 1 16 -7 0 -10 7 -6 15 3 8 0 15 -7 15 -7 1 -5 6 5 14 10 7 15 16 11 19 -11 11 -21 8 -27 -9z">
			</path>
			<path id="plJSIaUte" d="M645 280 c-13 -6 7 -7 55 -3 41 3 77 7 79 9 9 8 -115 2 -134 -6z">
			</path>
			<path id="pfSZujjFZ" d="M280 251 c0 -6 5 -11 11 -11 5 0 7 -4 4 -10 -3 -6 1 -7 10 -4 9 4 15 7 13 8 -2 1 -11 8 -20 15 -12 9 -18 10 -18 2z">
			</path>
			<path id="p1AxzauX1E" d="M680 246 c-78 -9 -95 -14 -95 -28 0 -9 -3 -19 -7 -23 -3 -3 -4 -23 -1 -44 5 -35 3 -39 -23 -46 -16 -5 -37 -8 -46 -8 -18 0 -22 -14 -12 -41 3 -8 12 -12 20 -9 8 3 14 1 14 -5 0 -14 -26 -33 -33 -25 -4 3 -7 1 -7 -5 0 -7 11 -12 25 -12 20 0 25 5 25 24 0 37 55 73 146 97 43 11 82 23 86 25 15 10 -3 25 -22 19 -14 -4 -19 0 -22 17 -2 19 -10 24 -40 26 -28 2 -37 -1 -41 -15 -4 -17 -5 -17 -6 0 -1 14 -6 17 -23 12 -18 -5 -20 -4 -8 4 8 6 36 11 62 11 62 0 150 19 142 31 -6 10 -6 10 -134 -5z">
			</path>
			<path id="pxm59ciR5" d="M460 204 c0 -14 3 -14 15 -4 8 7 15 14 15 16 0 2 -7 4 -15 4 -8 0 -15 -7 -15 -16z">
			</path>
			<path id="p1B3Z9sEAE" d="M531 175 c0 -16 4 -37 9 -45 8 -12 10 -10 9 10 0 14 -4 34 -9 45 -7 17 -9 16 -9 -10z">
			</path>
			<path id="p1FFaKJCXd" d="M437 104 c-3 -3 -3 -12 0 -20 3 -8 0 -21 -7 -29 -14 -17 -4 -55 16 -55 10 0 14 13 14 49 0 46 -9 68 -23 55z">
			</path>
		</g>
	</g>
</svg>
